<mxfile host="app.diagrams.net" modified="2024-07-16T08:22:12.198Z" agent="Mozilla/5.0 (X11; Linux x86_64) AppleWebKit/537.36 (KHTML, like Gecko) Chrome/126.0.0.0 Safari/537.36" etag="Y_PbNhLPXFm17j1JNSHI" version="24.6.5" type="github">
  <diagram name="Page-1" id="ucFDTJxj1MuP0T__f6Ae">
    <mxGraphModel dx="920" dy="726" grid="1" gridSize="10" guides="1" tooltips="1" connect="1" arrows="1" fold="1" page="1" pageScale="1" pageWidth="850" pageHeight="1100" math="0" shadow="0">
      <root>
        <mxCell id="0" />
        <mxCell id="1" parent="0" />
        <mxCell id="72ZY0S5QGdh6Q3wZreM4-68" value="" style="rounded=0;whiteSpace=wrap;html=1;movable=1;resizable=1;rotatable=1;deletable=1;editable=1;locked=0;connectable=1;container=0;fillColor=default;" parent="1" vertex="1">
          <mxGeometry x="50" y="250" width="510" height="780" as="geometry" />
        </mxCell>
        <mxCell id="72ZY0S5QGdh6Q3wZreM4-18" style="edgeStyle=orthogonalEdgeStyle;rounded=0;orthogonalLoop=1;jettySize=auto;html=1;movable=1;resizable=1;rotatable=1;deletable=1;editable=1;locked=0;connectable=1;" parent="1" source="72ZY0S5QGdh6Q3wZreM4-82" target="72ZY0S5QGdh6Q3wZreM4-3" edge="1">
          <mxGeometry relative="1" as="geometry">
            <mxPoint x="332.5" y="191.25" as="sourcePoint" />
          </mxGeometry>
        </mxCell>
        <mxCell id="72ZY0S5QGdh6Q3wZreM4-19" value="DNS Resolution" style="edgeLabel;html=1;align=center;verticalAlign=middle;resizable=1;points=[];container=0;movable=1;rotatable=1;deletable=1;editable=1;locked=0;connectable=1;" parent="72ZY0S5QGdh6Q3wZreM4-18" vertex="1" connectable="0">
          <mxGeometry x="0.2435" y="-2" relative="1" as="geometry">
            <mxPoint x="1" y="-20" as="offset" />
          </mxGeometry>
        </mxCell>
        <mxCell id="72ZY0S5QGdh6Q3wZreM4-50" value="ECR&lt;div&gt;Images for&amp;nbsp;&lt;span style=&quot;background-color: initial;&quot;&gt;services&lt;/span&gt;&lt;/div&gt;" style="outlineConnect=0;dashed=0;verticalLabelPosition=bottom;verticalAlign=top;align=center;html=1;shape=mxgraph.aws3.ecr_registry;fillColor=#F58534;gradientColor=none;movable=1;resizable=1;rotatable=1;deletable=1;editable=1;locked=0;connectable=1;container=0;" parent="1" vertex="1">
          <mxGeometry x="80.37" y="149.86" width="44.63" height="46.98" as="geometry" />
        </mxCell>
        <mxCell id="72ZY0S5QGdh6Q3wZreM4-82" value="" style="sketch=0;points=[[0,0,0],[0.25,0,0],[0.5,0,0],[0.75,0,0],[1,0,0],[0,1,0],[0.25,1,0],[0.5,1,0],[0.75,1,0],[1,1,0],[0,0.25,0],[0,0.5,0],[0,0.75,0],[1,0.25,0],[1,0.5,0],[1,0.75,0]];outlineConnect=0;fontColor=#232F3E;fillColor=#8C4FFF;strokeColor=#ffffff;dashed=0;verticalLabelPosition=bottom;verticalAlign=top;align=center;html=1;fontSize=12;fontStyle=0;aspect=fixed;shape=mxgraph.aws4.resourceIcon;resIcon=mxgraph.aws4.route_53;container=0;movable=1;resizable=1;rotatable=1;deletable=1;editable=1;locked=0;connectable=1;" parent="1" vertex="1">
          <mxGeometry x="277.63" y="149.86" width="57.12" height="57.12" as="geometry" />
        </mxCell>
        <mxCell id="72ZY0S5QGdh6Q3wZreM4-16" style="edgeStyle=orthogonalEdgeStyle;rounded=0;orthogonalLoop=1;jettySize=auto;html=1;exitX=0.5;exitY=1;exitDx=0;exitDy=0;exitPerimeter=0;entryX=0.5;entryY=0;entryDx=0;entryDy=0;movable=1;resizable=1;rotatable=1;deletable=1;editable=1;locked=0;connectable=1;" parent="1" source="72ZY0S5QGdh6Q3wZreM4-3" target="72ZY0S5QGdh6Q3wZreM4-10" edge="1">
          <mxGeometry relative="1" as="geometry" />
        </mxCell>
        <mxCell id="72ZY0S5QGdh6Q3wZreM4-17" value="Routes traffic" style="edgeLabel;html=1;align=center;verticalAlign=middle;resizable=1;points=[];container=0;movable=1;rotatable=1;deletable=1;editable=1;locked=0;connectable=1;" parent="72ZY0S5QGdh6Q3wZreM4-16" vertex="1" connectable="0">
          <mxGeometry x="-0.0331" y="-4" relative="1" as="geometry">
            <mxPoint as="offset" />
          </mxGeometry>
        </mxCell>
        <mxCell id="72ZY0S5QGdh6Q3wZreM4-3" value="&lt;div&gt;ALB&lt;/div&gt;" style="outlineConnect=0;dashed=0;verticalLabelPosition=bottom;verticalAlign=top;align=center;html=1;shape=mxgraph.aws3.application_load_balancer;fillColor=#F58534;gradientColor=none;container=0;movable=1;resizable=1;rotatable=1;deletable=1;editable=1;locked=0;connectable=1;" parent="1" vertex="1">
          <mxGeometry x="276.44" y="269.99999999999994" width="59.5" height="62.09" as="geometry" />
        </mxCell>
        <mxCell id="72ZY0S5QGdh6Q3wZreM4-10" value="" style="rounded=0;whiteSpace=wrap;html=1;fillColor=none;movable=1;resizable=1;rotatable=1;deletable=1;editable=1;locked=0;connectable=1;container=0;" parent="1" vertex="1">
          <mxGeometry x="80" y="385" width="450" height="615" as="geometry" />
        </mxCell>
        <mxCell id="72ZY0S5QGdh6Q3wZreM4-13" value="ECS Cluster" style="text;html=1;align=left;verticalAlign=middle;whiteSpace=wrap;rounded=0;fontSize=18;movable=1;resizable=1;rotatable=1;deletable=1;editable=1;locked=0;connectable=1;container=0;" parent="1" vertex="1">
          <mxGeometry x="130" y="395" width="190" height="30" as="geometry" />
        </mxCell>
        <mxCell id="72ZY0S5QGdh6Q3wZreM4-21" value="ECS" style="sketch=0;points=[[0,0,0],[0.25,0,0],[0.5,0,0],[0.75,0,0],[1,0,0],[0,1,0],[0.25,1,0],[0.5,1,0],[0.75,1,0],[1,1,0],[0,0.25,0],[0,0.5,0],[0,0.75,0],[1,0.25,0],[1,0.5,0],[1,0.75,0]];outlineConnect=0;fontColor=#232F3E;fillColor=#ED7100;strokeColor=#ffffff;dashed=0;verticalLabelPosition=bottom;verticalAlign=top;align=center;html=1;fontSize=12;fontStyle=0;aspect=fixed;shape=mxgraph.aws4.resourceIcon;resIcon=mxgraph.aws4.ecs;movable=1;resizable=1;rotatable=1;deletable=1;editable=1;locked=0;connectable=1;container=0;" parent="1" vertex="1">
          <mxGeometry x="90" y="395" width="35" height="35" as="geometry" />
        </mxCell>
        <mxCell id="72ZY0S5QGdh6Q3wZreM4-32" value="" style="edgeStyle=orthogonalEdgeStyle;rounded=0;orthogonalLoop=1;jettySize=auto;html=1;movable=1;resizable=1;rotatable=1;deletable=1;editable=1;locked=0;connectable=1;" parent="1" target="72ZY0S5QGdh6Q3wZreM4-36" edge="1">
          <mxGeometry relative="1" as="geometry">
            <mxPoint x="128.61693181818168" y="622.5" as="sourcePoint" />
          </mxGeometry>
        </mxCell>
        <mxCell id="72ZY0S5QGdh6Q3wZreM4-33" value="" style="rounded=0;whiteSpace=wrap;html=1;movable=1;resizable=1;rotatable=1;deletable=1;editable=1;locked=0;connectable=1;container=0;dashed=1;" parent="1" vertex="1">
          <mxGeometry x="99.25" y="600" width="276.25" height="380" as="geometry" />
        </mxCell>
        <mxCell id="72ZY0S5QGdh6Q3wZreM4-137" value="" style="edgeStyle=orthogonalEdgeStyle;rounded=0;orthogonalLoop=1;jettySize=auto;html=1;" parent="1" source="72ZY0S5QGdh6Q3wZreM4-36" target="72ZY0S5QGdh6Q3wZreM4-107" edge="1">
          <mxGeometry relative="1" as="geometry" />
        </mxCell>
        <mxCell id="72ZY0S5QGdh6Q3wZreM4-36" value="Task 1" style="sketch=0;outlineConnect=0;fontColor=#232F3E;gradientColor=none;fillColor=#ED7100;strokeColor=none;dashed=0;verticalLabelPosition=bottom;verticalAlign=top;align=center;html=1;fontSize=12;fontStyle=0;aspect=fixed;pointerEvents=1;shape=mxgraph.aws4.ecs_task;movable=1;resizable=1;rotatable=1;deletable=1;editable=1;locked=0;connectable=1;container=0;" parent="1" vertex="1">
          <mxGeometry x="142.51000000000005" y="679.9985714285715" width="38.54" height="50" as="geometry" />
        </mxCell>
        <mxCell id="72ZY0S5QGdh6Q3wZreM4-138" value="" style="edgeStyle=orthogonalEdgeStyle;rounded=0;orthogonalLoop=1;jettySize=auto;html=1;" parent="1" source="72ZY0S5QGdh6Q3wZreM4-38" target="72ZY0S5QGdh6Q3wZreM4-107" edge="1">
          <mxGeometry relative="1" as="geometry" />
        </mxCell>
        <mxCell id="72ZY0S5QGdh6Q3wZreM4-38" value="Task 2" style="sketch=0;outlineConnect=0;fontColor=#232F3E;gradientColor=none;fillColor=#ED7100;strokeColor=none;dashed=0;verticalLabelPosition=bottom;verticalAlign=top;align=center;html=1;fontSize=12;fontStyle=0;aspect=fixed;pointerEvents=1;shape=mxgraph.aws4.ecs_task;movable=1;resizable=1;rotatable=1;deletable=1;editable=1;locked=0;connectable=1;container=0;" parent="1" vertex="1">
          <mxGeometry x="217" y="679.9985714285715" width="38.54" height="50" as="geometry" />
        </mxCell>
        <mxCell id="72ZY0S5QGdh6Q3wZreM4-139" value="" style="edgeStyle=orthogonalEdgeStyle;rounded=0;orthogonalLoop=1;jettySize=auto;html=1;" parent="1" source="72ZY0S5QGdh6Q3wZreM4-39" target="72ZY0S5QGdh6Q3wZreM4-107" edge="1">
          <mxGeometry relative="1" as="geometry" />
        </mxCell>
        <mxCell id="72ZY0S5QGdh6Q3wZreM4-39" value="Task n" style="sketch=0;outlineConnect=0;fontColor=#232F3E;gradientColor=none;fillColor=#ED7100;strokeColor=none;dashed=0;verticalLabelPosition=bottom;verticalAlign=top;align=center;html=1;fontSize=12;fontStyle=0;aspect=fixed;pointerEvents=1;shape=mxgraph.aws4.ecs_task;movable=1;resizable=1;rotatable=1;deletable=1;editable=1;locked=0;connectable=1;container=0;" parent="1" vertex="1">
          <mxGeometry x="291.80000000000007" y="679.9985714285715" width="38.54" height="50" as="geometry" />
        </mxCell>
        <mxCell id="72ZY0S5QGdh6Q3wZreM4-26" value="" style="edgeStyle=orthogonalEdgeStyle;rounded=0;orthogonalLoop=1;jettySize=auto;html=1;movable=1;resizable=1;rotatable=1;deletable=1;editable=1;locked=0;connectable=1;" parent="1" target="72ZY0S5QGdh6Q3wZreM4-25" edge="1">
          <mxGeometry relative="1" as="geometry">
            <mxPoint x="426.9306250000002" y="623.75" as="sourcePoint" />
          </mxGeometry>
        </mxCell>
        <mxCell id="72ZY0S5QGdh6Q3wZreM4-28" value="" style="rounded=0;whiteSpace=wrap;html=1;movable=1;resizable=1;rotatable=1;deletable=1;editable=1;locked=0;connectable=1;container=0;dashed=1;" parent="1" vertex="1">
          <mxGeometry x="392.37" y="600" width="120" height="180" as="geometry" />
        </mxCell>
        <mxCell id="72ZY0S5QGdh6Q3wZreM4-25" value="Task" style="sketch=0;outlineConnect=0;fontColor=#232F3E;gradientColor=none;fillColor=#ED7100;strokeColor=none;dashed=0;verticalLabelPosition=bottom;verticalAlign=top;align=center;html=1;fontSize=12;fontStyle=0;aspect=fixed;pointerEvents=1;shape=mxgraph.aws4.ecs_task;movable=1;resizable=1;rotatable=1;deletable=1;editable=1;locked=0;connectable=1;container=0;" parent="1" vertex="1">
          <mxGeometry x="433.1" y="679.9985714285715" width="38.54" height="50" as="geometry" />
        </mxCell>
        <mxCell id="72ZY0S5QGdh6Q3wZreM4-73" style="edgeStyle=orthogonalEdgeStyle;rounded=0;orthogonalLoop=1;jettySize=auto;html=1;exitX=0.5;exitY=1;exitDx=0;exitDy=0;exitPerimeter=0;movable=1;resizable=1;rotatable=1;deletable=1;editable=1;locked=0;connectable=1;" parent="1" source="72ZY0S5QGdh6Q3wZreM4-67" target="72ZY0S5QGdh6Q3wZreM4-33" edge="1">
          <mxGeometry relative="1" as="geometry">
            <mxPoint x="232" y="570" as="targetPoint" />
            <Array as="points">
              <mxPoint x="335" y="535" />
              <mxPoint x="232" y="535" />
            </Array>
          </mxGeometry>
        </mxCell>
        <mxCell id="72ZY0S5QGdh6Q3wZreM4-77" value="Manage task count&lt;div&gt;in service&lt;/div&gt;" style="edgeLabel;html=1;align=center;verticalAlign=middle;resizable=1;points=[];container=0;movable=1;rotatable=1;deletable=1;editable=1;locked=0;connectable=1;" parent="72ZY0S5QGdh6Q3wZreM4-73" vertex="1" connectable="0">
          <mxGeometry x="0.6453" relative="1" as="geometry">
            <mxPoint x="2" y="3" as="offset" />
          </mxGeometry>
        </mxCell>
        <mxCell id="72ZY0S5QGdh6Q3wZreM4-74" style="edgeStyle=orthogonalEdgeStyle;rounded=0;orthogonalLoop=1;jettySize=auto;html=1;exitX=0.5;exitY=1;exitDx=0;exitDy=0;exitPerimeter=0;entryX=0.5;entryY=0;entryDx=0;entryDy=0;movable=1;resizable=1;rotatable=1;deletable=1;editable=1;locked=0;connectable=1;" parent="1" source="72ZY0S5QGdh6Q3wZreM4-67" target="72ZY0S5QGdh6Q3wZreM4-28" edge="1">
          <mxGeometry relative="1" as="geometry">
            <mxPoint x="452" y="570" as="targetPoint" />
            <Array as="points">
              <mxPoint x="335" y="535" />
              <mxPoint x="452" y="535" />
            </Array>
          </mxGeometry>
        </mxCell>
        <mxCell id="72ZY0S5QGdh6Q3wZreM4-78" value="Manage task count&lt;div&gt;in service&lt;/div&gt;" style="edgeLabel;html=1;align=center;verticalAlign=middle;resizable=1;points=[];container=0;movable=1;rotatable=1;deletable=1;editable=1;locked=0;connectable=1;" parent="72ZY0S5QGdh6Q3wZreM4-74" vertex="1" connectable="0">
          <mxGeometry x="0.7056" y="-1" relative="1" as="geometry">
            <mxPoint x="1" y="-2" as="offset" />
          </mxGeometry>
        </mxCell>
        <mxCell id="72ZY0S5QGdh6Q3wZreM4-67" value="Auto&amp;nbsp;&lt;span style=&quot;background-color: initial;&quot;&gt;Scaling&lt;/span&gt;" style="sketch=0;points=[[0,0,0],[0.25,0,0],[0.5,0,0],[0.75,0,0],[1,0,0],[0,1,0],[0.25,1,0],[0.5,1,0],[0.75,1,0],[1,1,0],[0,0.25,0],[0,0.5,0],[0,0.75,0],[1,0.25,0],[1,0.5,0],[1,0.75,0]];outlineConnect=0;fontColor=#232F3E;fillColor=#ED7100;strokeColor=#ffffff;dashed=0;verticalLabelPosition=bottom;verticalAlign=top;align=center;html=1;fontSize=12;fontStyle=0;aspect=fixed;shape=mxgraph.aws4.resourceIcon;resIcon=mxgraph.aws4.auto_scaling3;movable=1;resizable=1;rotatable=1;deletable=1;editable=1;locked=0;connectable=1;container=0;" parent="1" vertex="1">
          <mxGeometry x="305" y="435" width="60" height="60" as="geometry" />
        </mxCell>
        <mxCell id="72ZY0S5QGdh6Q3wZreM4-81" value="VPC" style="sketch=0;points=[[0,0,0],[0.25,0,0],[0.5,0,0],[0.75,0,0],[1,0,0],[0,1,0],[0.25,1,0],[0.5,1,0],[0.75,1,0],[1,1,0],[0,0.25,0],[0,0.5,0],[0,0.75,0],[1,0.25,0],[1,0.5,0],[1,0.75,0]];outlineConnect=0;fontColor=#232F3E;fillColor=#8C4FFF;strokeColor=#ffffff;dashed=0;verticalLabelPosition=bottom;verticalAlign=top;align=center;html=1;fontSize=12;fontStyle=0;aspect=fixed;shape=mxgraph.aws4.resourceIcon;resIcon=mxgraph.aws4.vpc;container=0;movable=1;resizable=1;rotatable=1;deletable=1;editable=1;locked=0;connectable=1;" parent="1" vertex="1">
          <mxGeometry x="60" y="260" width="48" height="48" as="geometry" />
        </mxCell>
        <mxCell id="72ZY0S5QGdh6Q3wZreM4-120" value="&lt;b&gt;Redis&lt;/b&gt;&lt;div&gt;&lt;b&gt;Service&lt;/b&gt;&lt;/div&gt;" style="text;html=1;align=left;verticalAlign=middle;whiteSpace=wrap;rounded=0;movable=1;resizable=1;rotatable=1;deletable=1;editable=1;locked=0;connectable=1;" parent="1" vertex="1">
          <mxGeometry x="439.1" y="610" width="66.9" height="30" as="geometry" />
        </mxCell>
        <mxCell id="72ZY0S5QGdh6Q3wZreM4-122" value="&lt;b&gt;API&lt;/b&gt;&lt;div&gt;&lt;b&gt;Service&lt;/b&gt;&lt;/div&gt;" style="text;html=1;align=left;verticalAlign=middle;whiteSpace=wrap;rounded=0;movable=1;resizable=1;rotatable=1;deletable=1;editable=1;locked=0;connectable=1;" parent="1" vertex="1">
          <mxGeometry x="138.44" y="610" width="84.22" height="30" as="geometry" />
        </mxCell>
        <mxCell id="72ZY0S5QGdh6Q3wZreM4-123" value="" style="sketch=0;outlineConnect=0;fontColor=#232F3E;gradientColor=none;fillColor=#ED7100;strokeColor=none;dashed=0;verticalLabelPosition=bottom;verticalAlign=top;align=left;html=1;fontSize=12;fontStyle=0;aspect=fixed;pointerEvents=1;shape=mxgraph.aws4.ecs_service;movable=1;resizable=1;rotatable=1;deletable=1;editable=1;locked=0;connectable=1;container=0;" parent="1" vertex="1">
          <mxGeometry x="110" y="610" width="22.35" height="27.5" as="geometry" />
        </mxCell>
        <mxCell id="72ZY0S5QGdh6Q3wZreM4-136" value="" style="group;dashed=1;" parent="1" vertex="1" connectable="0">
          <mxGeometry x="140" y="826" width="187.25" height="130" as="geometry" />
        </mxCell>
        <mxCell id="72ZY0S5QGdh6Q3wZreM4-107" value="" style="rounded=0;whiteSpace=wrap;html=1;container=0;movable=1;resizable=1;rotatable=1;deletable=1;editable=1;locked=0;connectable=1;" parent="72ZY0S5QGdh6Q3wZreM4-136" vertex="1">
          <mxGeometry x="3.09" width="187.25" height="130" as="geometry" />
        </mxCell>
        <mxCell id="72ZY0S5QGdh6Q3wZreM4-89" value="S3" style="sketch=0;points=[[0,0,0],[0.25,0,0],[0.5,0,0],[0.75,0,0],[1,0,0],[0,1,0],[0.25,1,0],[0.5,1,0],[0.75,1,0],[1,1,0],[0,0.25,0],[0,0.5,0],[0,0.75,0],[1,0.25,0],[1,0.5,0],[1,0.75,0]];outlineConnect=0;fontColor=#232F3E;fillColor=#7AA116;strokeColor=#ffffff;dashed=0;verticalLabelPosition=bottom;verticalAlign=top;align=center;html=1;fontSize=12;fontStyle=0;aspect=fixed;shape=mxgraph.aws4.resourceIcon;resIcon=mxgraph.aws4.s3;container=0;movable=1;resizable=1;rotatable=1;deletable=1;editable=1;locked=0;connectable=1;" parent="72ZY0S5QGdh6Q3wZreM4-136" vertex="1">
          <mxGeometry x="107.5" y="35" width="60" height="60" as="geometry" />
        </mxCell>
        <mxCell id="72ZY0S5QGdh6Q3wZreM4-90" value="EFS" style="sketch=0;points=[[0,0,0],[0.25,0,0],[0.5,0,0],[0.75,0,0],[1,0,0],[0,1,0],[0.25,1,0],[0.5,1,0],[0.75,1,0],[1,1,0],[0,0.25,0],[0,0.5,0],[0,0.75,0],[1,0.25,0],[1,0.5,0],[1,0.75,0]];outlineConnect=0;fontColor=#232F3E;fillColor=#7AA116;strokeColor=#ffffff;dashed=0;verticalLabelPosition=bottom;verticalAlign=top;align=center;html=1;fontSize=12;fontStyle=0;aspect=fixed;shape=mxgraph.aws4.resourceIcon;resIcon=mxgraph.aws4.efs_standard;container=0;movable=1;resizable=1;rotatable=1;deletable=1;editable=1;locked=0;connectable=1;" parent="72ZY0S5QGdh6Q3wZreM4-136" vertex="1">
          <mxGeometry x="17" y="36" width="58" height="58" as="geometry" />
        </mxCell>
        <mxCell id="72ZY0S5QGdh6Q3wZreM4-141" value="" style="image;sketch=0;aspect=fixed;html=1;points=[];align=center;fontSize=12;image=img/lib/mscae/Docker.svg;" parent="1" vertex="1">
          <mxGeometry x="50" y="57.5" width="48.78" height="40" as="geometry" />
        </mxCell>
        <mxCell id="72ZY0S5QGdh6Q3wZreM4-142" value="Containerized Project Setup&lt;div&gt;with Docker&lt;/div&gt;" style="text;html=1;align=left;verticalAlign=top;whiteSpace=wrap;rounded=0;fontSize=18;fontStyle=1" parent="1" vertex="1">
          <mxGeometry x="112.17" y="50" width="247.83" height="55" as="geometry" />
        </mxCell>
        <mxCell id="72ZY0S5QGdh6Q3wZreM4-145" value="" style="image;sketch=0;aspect=fixed;html=1;points=[];align=center;fontSize=12;image=img/lib/mscae/Cache_Redis_Product.svg;" parent="1" vertex="1">
          <mxGeometry x="399.98" y="610" width="35.71" height="30" as="geometry" />
        </mxCell>
        <mxCell id="72ZY0S5QGdh6Q3wZreM4-126" value="" style="rounded=0;whiteSpace=wrap;html=1;container=0;movable=1;resizable=1;rotatable=1;deletable=1;editable=1;locked=0;connectable=1;" parent="1" vertex="1">
          <mxGeometry x="570.78" y="250" width="198.44" height="170" as="geometry" />
        </mxCell>
        <mxCell id="72ZY0S5QGdh6Q3wZreM4-87" value="RDBMS" style="image;aspect=fixed;html=1;points=[];align=center;fontSize=12;image=img/lib/azure2/databases/Azure_Database_PostgreSQL_Server.svg;container=0;movable=1;resizable=1;rotatable=1;deletable=1;editable=1;locked=0;connectable=1;" parent="1" vertex="1">
          <mxGeometry x="610" y="312" width="48" height="64" as="geometry" />
        </mxCell>
        <mxCell id="72ZY0S5QGdh6Q3wZreM4-88" value="Auth" style="image;aspect=fixed;html=1;points=[];align=center;fontSize=12;image=img/lib/azure2/security/Multifactor_Authentication.svg;container=0;movable=1;resizable=1;rotatable=1;deletable=1;editable=1;locked=0;connectable=1;" parent="1" vertex="1">
          <mxGeometry x="678" y="310" width="55.400000000000006" height="68" as="geometry" />
        </mxCell>
        <mxCell id="72ZY0S5QGdh6Q3wZreM4-115" value="&lt;b style=&quot;font-size: 14px;&quot;&gt;Supabase&lt;/b&gt;" style="text;html=1;align=left;verticalAlign=middle;whiteSpace=wrap;rounded=0;container=0;movable=1;resizable=1;rotatable=1;deletable=1;editable=1;locked=0;connectable=1;fontSize=14;" parent="1" vertex="1">
          <mxGeometry x="620" y="257" width="60" height="30" as="geometry" />
        </mxCell>
        <mxCell id="U8Zr3fgWpziJldObrb0T-9" value="" style="shape=image;verticalLabelPosition=bottom;labelBackgroundColor=default;verticalAlign=top;aspect=fixed;imageAspect=0;image=data:image/png,iVBORw0KGgoAAAANSUhEUgAAASUAAAEsCAMAAACytlWNAAAC9FBMVEVHcEw8yoo9zYw9zo09z44+0Y8/0pA9z449zow7zJI9zIw90I4+0ZBC3ZdA1ZI+z44/1JE/05A+z44+z408y486yYs9zo1B25ZB2pZB2JQ8zIs8y4lC35k+0Y89zo08yow+0Y8+z41A15M8zo0+05E+0Y88zo0+0Y89zo090Ys8zIs/1ZI8zIw8zItB2ZU9z41B3JY9zo0+0I48zo09zIw8y4s8zIw8zYw/05A+0I48zY09zo09zYw/05Eff1MghlgijF0llGMmmmYvq3M2vX85w4UdfVEef1MegVUghFchiVojjl4lk2Iml2QpnWktpW8vrHQysnk1uH03vYE5woU5xoc6xog7yIkff1QeflIfgFQfgVUgglYgg1YghFchhVghh1khiFoiilsjjF0jjl4kj18kkWAkkmElk2IllGImlmQnl2UomGYommcpm2gpnWkpnmoqn2oroGsromwro20spG4tpW8tpnAtp3AtqHEuqXIuqnIvq3MvrHQwrXUwrnUxr3cxsHcysngys3kytHoztXsztns0t3w0uH01uX41un82u382vIA2vYE3voE4wIM4woQ6xIY6xYc7x4g7yIk7yYo9zIw9zo0hhlgii1wxsXg0tnw1un44wYQ5woU5w4Y6xoc9zo4ijFw3v4I8yoo8y4sztXo5xIY9zYw7xYc7yYkpnmkhiVoqoWwml2QonGgqoWswr3Y0uX0ijV0nmWYom2c6x4gjj14mmGUjkF8xsXckk2EllmMspm83wIM8zo01u382voE3v4EtqXEurHMspW8qoGskkmAvrXQwr3UspW4zt3wvrXUxsnguq3MnmmYrpG4mmWUsp3Apn2oqomwnnWgnm2c+z40poGsik2AjkmAjlGArqnAnmWUmmmcmm2YnnWconmk6x4g7yYk3v4Iqom03wIQrpG04w4Y4xIY1voE4w4UsqHA3wYMzt3w0u383wYMuqnMurHQvq3M2wIIuq3M3woMzun0wsncytns0vYAxsnkhj+2PAAAA/HRSTlMANHu47P//xzoCTr78///////MaAUSk////ygX/+RHCOnX/z7v8iLbjQxg+0Mb/7L/V9CvhC6oovbgw5pv/T4+Pj4/Pj7/+fn5+fn5+ff5+fn5+fn6+OXT//////////////////////////////////////////////////////////////////////////////////////////////////j///////////////////////////////////////v///////////////////////////////m0nn1eKu4e5tjX2fGKp5aNv99y6WjLXrPR6suI1vHu/+vf/8fbSdjCAAAZs0lEQVR4AezcZXbjTBSE4Ta0jK0ySwrHzBzGjxmH9r+TiSHs5J4cabiewALeH8Y6V31ioXAkqq1oLBxPKFotmUobWwM6Y7K5fEE9RsVS1sliyXK9yJp6iNYjG1ncoc3mlrqPtiMbGvc5OyF1D5WMxkNmd13RHfmyhcdMSdGtStXGCnZtTdG1esPFKto01RK1UgarubGWooWmo7GaHV1TNNfuZPEEXa4omolXy3iKdrvqCvV2XTxJ92eVqDAY4hn9tlKKmkY/WymvFI06WQiVKBT1wEqC9bELVhJsTwxYSTJ1NSsJEsl0Bqwk2Nv0wEqC4tiAlQSJfTkSK4U9i5UkyY4NVhKs7XhgJUErNgQrSQ4MWEkSdi1WkmwdZsBKgvpRH6wkaB0bsJLkxGhWkpyWLQhYqXtog5XE2UQfL9I/Vd+c7ZTBy3hN9c0puZqVJHk7C1YSxGtlgJXk2QQribMJB6wkaRrNSpJ2Jguwkjx4YyVxNjEEK/mcTciVOJuQK3HwtsBKIfmRm5XWcy5YKYDZBCuFXc1K8iN3Bqzkf/DGSsWYA1YSJA7kSKwU7lusJEke2mAl/4/cIu/kqx+8GfjmDdTX7WSoWSmA2QQrbcmP3Ky0Jg/eWKmVcsBKkpLRrCTJexZYSVCp2WAlQa/hgpUCGLyxUtPRrCRpn2XBSv5nE6xUlwdvrFQYGLCSZOpoVgrgkZuVQtEyWMn3nSCwUkEevLFSIuxoVpKM0jaC50345ZvMi6mvSDE3xIfg7XLw9o1VCvc1KwXw5RsryXeCWCnRyjlgJcmB0awkOXUssJL/R25Wku8EgZVaxw5YKYA7Qax0Ks8mWKlbK4OV/N8JYqVWyoCVAhi8sVLetsBK/u8EsZI8mwArbQ8MPoby0fnLXMxdXlwufHfP93M/rPbjQ/G1ovKnOdT4GKyffl74ZWb2/45fH/tt5veFP2b+XPjryt9L/1z7d+G/pf9nXi28vvLm7bvItOujVNvOvuftrtYkN2IoAIeWwbthZsabcK77GYaZmZmaGe1mXmbGx4t0yuWv1yFnofQI/ycdaWa6azRFSu0d7e2dZnV1dXdxdVP1mNXb29da/QODg4NDQ0PDIyOjo2Pj4xOTU1PTMzOzs3Nz8wuLi0tLyyura2vrG5tb2zu7u3tut8fr8wcCwVA4Eo3FE8lkKpVKuzK6bmRzee3EvsIXr3/7eEaH8NqEGiWjr8OqdrMAhgIYSpr1FfsHCKpkOo2yE0NNAwpOSysEtb6xsbm9TU577rIXUBWCqsbicYaq1RsZvWkY2Xx+/1unfvhW7ccmHkNpwG4kif7OiJCK3E2nT7ciTRLStEBipRV00+bmpuimcrkskaLRGCGdSdUZSSeks2fPnjunfaz9/JP6D7w9hpKDPgKSaKXS6dPDlhKQ0EoLZiutcisREintuT3lstd3Hkg0c7EEIdXqdUJqGtns2XNU+bz2/YevqP7A22MoOTMSrTTI80ZIpDQ2JlqJjeS8LduQPF6vl5FCkUgkFgdSzXUhkzG4ldiI6uLFE8f/+OAx3glSp+QYCUpmegNplJGoRHqzktVJGwIJSj7f+WAljPSOA6nucmUucSdJJKp937/43f96J+gtTa2SJOL6FyKJJFsJKw6dJJQWrBW3jlYCEq+48+fN5OZWog2XJqNLhnE5d/acIEJpx4688xjvBKlRyg52OGgjGxKUCImVJNIVRDclt1Cy7gCvLyBDKUHzVqul6w1Gyl5mJGlUKBS0Yz98oPxjE86VHCP1FQfMawnzNo5rCUo0b1cYSSgxEisREl0Bfj6WwlYo8RFwiY8AG1JB2/fGH4/x2oQ6JTuR3QhEQMKp1BJKUCKjR6J7UyDtMZKPkDi6o0DCfmvozSaS+xEjqpMff+34nSDlSs76CEfAVUI6LUMJRwBf3qw0v7h4DdG9yqEkW4mQoMTRnUjKVuIjIEfB3TJtoj529G/Jn//wY02xkkFKzoyK/ayEUGIkRPd1/HRyg5DmF2/SuDHS+uaW3G+03gKcShHrp5MarTed1hsnd0sfyTr28yFn7wSp7yVpZCeSBSKqViRSmgDStEBaQHKLH+EIaZfmzeMpQwlHgERKE1ITyX3OZoTa/837Dt4J2qdeqdRua6S/7SOhNFiyfn4bw7xZrURIyzK5obR3C0jYb7erUJJITeMy7zcYSSRZb7zoPLnVK/37rAkkDqWhO0JpfEIg3Z25d+MGt9I1ud44lLaBJI6ACiFV6QhIcCilL2T0+1kg5e1EqJNHv3X4TpB6pX/Za2yEwnqj/fbgAS4lKN29S5fSDaw37DcgiVACkp+UCIlu7njizBm6lFyMRKF0Fkja39Sxf78G3pYfVVauZBnJsgeSDCUc3YRkKk09JCUgQYmRWn8TQPPmx7zFYuJUIqQLepOUEN02oz+ZOws1R24lCofsDY2dxfGEmZnx4/sQYWZOlinMzMwMO8y0zEzzPLd+VY08bbflngtp6RH+r3R0zpHcnlylIy4KXr5dWs6F0r23hPeaQyQLSvf23DcwRBMApPZBFSVrAhY60w0kQq7ut698MsEECKTfvu//KAipXChdFn42kRelzJC+EEr3DzFK7Ddr3owSJsD8JKI0jOmmCegWSkAS6RZI0imp6U6HBKWLbwh/JyhHSvWIPCMQQclMAPtt5OHRUYNkJsA3b8scJEqllyyZoEqYbiC5kCvF2+82SmmrMmtO6MFbbpTCY8TyJa5CeuhhIPVayDVIY4sWLVkCJCipCXjtNTvf3h3/hibA1SV//hLYbwjTSRc1fPBWKedG6dYskP42qzQkojTyEJA05P4FJRffxrQJgBJNgI6S329C6Tvzk0AKUCquPjTwbCJfSmFGJkoq3ZjuR6HU5+yk5Df1k5pMVtj5BiQX34A0riZAmgCUO0yp0NrAfs9rLeRMyaeRVEaekppubQJ6+4zSKhsllBtVUlGSelIovbnm7XfWrvtp/H2hhOkmmUCpHFgnHt3gO0Ezy/lRuv/W8BzBSPbbjz09aronm+7H+1S6V6kqLV6yfunyDUB63pzSV6LcaxAl1wR84EIulIKQ8JWXhf8YL4dV+PSRW1LCSIIRkKwvoQkw093Xp00A+w2ntH7ZMm0Chi2+AeltNQHsN5zSn1oFNKF0fh4P3sKUfn/0lvo0UgtJKPVUL00433r1fNP8ttE1AUByVsmaACgBCemumu7mlE5M0aU5h6PceVK6NbTXYCTrxx6zSs4EPGpNN/vNpdxFS5gkbQKQbm68gbTmXZo3heTON9XucniWjg58JyivHffYrc0gmXIDaWpfIqO0yUHaOEZdYk2AlbgiSkKJehJKv30oo5SRUrF4ZP2zCS7fcqYEojpGIDJGJt1Dmzc/6JLJoPYlT7HfVLn1+m3Lc1vVBIif5DYAUSLk/suNUr9TpaBZsrh7duA7QXlSaiTaLCCpVdqM6ZaQ2/uYQJLjbdMmTMC2MYtvW1ZuJeTK+fbVduoSKHGzBCVGKZsqlS8+7ZTAH+PlRym011jVkPvQ6Gj7IH2JQHpK99s2T+k5l0wYJaH0tW8CJlUpK6XWqwPPJvKjdHuQEZQQpSGUm5ArlASSUpovftKfb16UfIcrdtJJ92+mShnMUrlw+uzA3yvldsY9dlsaJI/I33d7SjRv5ifnz3cl7nqBtOO5LihpfLM3AetQ7gSlsCqxZp51du3XJlDuCCh5QfJzlAJpZESkG1US021Nt3/OJZBWQmmnXL+96p696XX3uFclu1xqTqnliqOSys3lW/6UHr/dI0pjhCiR3zY7SI+2a4nrnZJev9EESNO9c6fENyC9sUZDrqmSe/WWIcLhA246uubBW2s5Ckp3BCFBqXrfjSj1dTwhkHSUxsQF4Ce1CdipIVdN91pz3UopS4RjXTzjlOR3goAUBaUAInFKmACkW60S1ZuKklol2W7LUCV7E/DrV9X85goTRylrhEO7k1H3sEoxGkoBSFilIao3s0pCSUOuWiVuloBEiWtNwGvdX6/RlGuUMkc4VOnwU5LPJigC4tClACMdJctvcmlioqTnm0DSaLLjueck45rpfh1KsuF+QpbMdzNKWSLc6WclXqFexRfeYpklCyN1iFjqJ4HEqwAg0QRguiW+cb4t2yXSLZB20gS8up0SN6lK07ABxbYbk98JQpSiopQyRyxEiUsTKDlR6viLvqSTkOtMwK5derOkIXc7fQkH3DtTtDtzhGu5JiFKPHiLh1I6I4PkR+lRl0wYJTXdG6GEKD1nphsXgOt22s2Gm26Eu3TGeYnLt0oxHkp9n9dtNoOkJa6OEpR27+5zlDZ1Pjt/j/UlNAE8xKXp1g2n2r0uaZayUGo7NSlKfOo9Iko1g/SjZwSlKqTe3VriEnIZJYEkTfcWKIlTQrplw6FKOMrpR7jSBQk/eQrtZDyUnvCUQJRgZH3JiOsn9+7uc/lN+5IFi/YR3+hLpOlGulElLSi9KhklswFhVSpWDkvGt9MLMVJKgUQ02ezuu9vbZZSecC5AIDFKrgnwN0umSp5SMsIFKaW/FZwz4+JyVJTuStEjXZOPTIHE+SaQ9rtR2iMhd/16B6nLpJtRUu3WCAclPeAyRbiWy+fWPMMtxkTps6fvSpsjL0pavblHb6Lc+6ne5u/ZqNdvknKf2youAFXylJIRzlMCUkbl5vEk33mNiFJhwZ0NGAFJpZtHpgpJKB0QUZo03Vt2OKsEpV+BZGZp2hHuuGNrbirPPmtmZJQ+B1E9I9+XIN29YgIO/vXX/k2rDkiJO+bym5huIGEosQGoko9wHHDZm9xC5cq66+5CXJQW3pU2R0aJ841byt2P9x08+ORfagJous0qkXIZJaMUjHCh5q32ydIVlXJslNIZcbVEP+lKpd0TMkqEXCAtAhL5TSihSlCaEuHemW6Eq1x+Qg2kU067OEZKKZAG2G9WBQCJKkBMNyZgEZB2rUCVuoaTZikZ4TKZpbYj6h4snX1EKTZKdxsjQ2SMBvzVUvtegYTplmSCnxTTDSW9EPDarU+6UiLcn01UaeYF9W9MjiwWI6TUU8tIFpDwk4N7yW/yyNQgje3j0sRUqcurUtUGEE6yN7mF1nNTnr6fWI6PUhokzW9AIppYyHWtko1SkpKPcJ7Sb167g5Tsp4OxU1r0dz2joSHLb0LJSiV/3+0M5TK1Aabd/0WEq5yW9tZ0dkuklDwjg6SjNDoIJZkkXgVIMtm2UTfcLm+WUiMclDJEOCrcM1J/JhghpXpGUHKjRPXWp/fdqw7Ml2ii2UQ3XIMI91PWCIdy+3dv0e84j8gYsbQvQbrlkSmQOg84F6DZBEi24SzCWTjxEe67ZJObWbnt+XtrIU5KSUhMEpQ437QvgdIeVMlT0gj3YjDChX13yzHnpVM6dHVsTmDxPcm9xpJS6SEbJfqS/daX7DFV8mYpNcJ9kzXCVc45u9F/Up5UipBSEtIDQ2aVkO4nJJoIpU5UacHGhFl6oWmEM0rpkEpnpio3a86sSoSUpiJ6wK6WrHqTaCJVAFe5bLh93iz91xGuaA+VUtcNFxcio/SFZwQkFpD0fJvo6AASlAQS2q02oKpKL3kb8Na0mtxCy7zQFwNK0VFKDJKj9LDemvhWaRM2wFNKiXCvN4hwjbX7UlPu+IXJKA355SBttqdK9CVKCVXy2u2KpR0ZIlywyb34uuObfIs6LkpLfkxsNyC56k0gucLEa3d6hHv5P4pwpWubfDfgwmNnRkjpAQcJRpv1fGtnlJ5AlUy7wxHu64YRDkrhZxOp6/DWCClVGenVkhYmOkpelbwNAJJtOB/hTJUyNLl8HIfLt/AwXTAzLkrwUUZAMqvkVclTahDhXp1+hGuZkeEjldfEpEzFFT8OTWU0aZX20nXbhktEuF3/dYRrOynLFwXP5nFuLKv0wo8JRkBylHSULJxohEtpcs1R1j0RDIST4649OtuXTdtmRkXJIMFI8huUGCVPySLcWCDCZb6FQ7kPy/p989ZCRJSqcwQlIKlXCtgAdwv3sqPkbcBPU23Av9s7By5JliYMx6LmrEZro2dt2zjeg49/4d7Da61t2+y1bdu2bdu7Pe90VlVUTlXNxcxmVvyE53S/J5+oiEz5ME5svezkrUrUijUyDKWlJkj4w62KUkIquSpcZGTJi8IVyJ2PvFa+nEWNDEJpzVLByJxKOCzZFA6d3MhXuO5M4Qa7KlwIYxPeqkq1AokZg9LYpRFEKGsqQeEOsU4uUol1ct32KRLw8c1r5c0fCmUUSgISJrpEdjOFS6bEFW6gF4UzqtYmn1WxWGxihqBkhhSVkxNIJXRyRSrtY6mETq6QE9m524itm5f8Vp16uQokZkBKXOFAyaZwPb0onP/k5rJSrX5sKMbIEJQAyVXhOnlQuOGOP6VQ6WyUtkoqX8oIxVYNJcQkpk8V2m+ltMCkcDgGIJXEMQBy0gOpZBszkR0DEuIqUporX1LtajUblNl4Mn2q0hpOSaJw7ZwVzjRIOTMVhTMK1KY/VxXKZkpKrzp1mP3h8FMyK9xv/hSOD1Lygbe0VHZKpzp9HIz+nMJtcFE4jE18hcUoQU6Q3fJOrn+FC5XJRmpQ+haiy44Bv/FOLlLJlt3SYZzEJhVJAUqAFBl9Q3ZLFK6LTOFSGcYxYsuTGpSYwn0fUTjeyUUq9fSscBh4U4CSd4VbY1e4Aa4KVxXJrQAlpnA7fCrcJJnChcpUJkUoffnojVRabk0lHAOQ3Y4jgsmUzKkESmJsQhVKQuEWcoU7kGaFMwrkp6++sp857k/h9lu2vPq7KhwuUvjK68xRd4X7AwoHSkzh+Eo8H3hTgZJ/hevtrHDYheNjEwpQ+kZ6DEBjCdnNRwRxDLAq3CiR3I1JMUpQuLR+hRvKFc6IbUSqUHJRuN/TrnCxDSsoQ8mrwi2GwnkepMTAm0qU/nqFQ3IrQ0lktymVolte7fg+BVLJ3MllI4IGbptQhJJnhcMxQK5woMTuCVKA0gl/CteDKRwaS7ZObizuCVKjzq5b565w+8z7FFzhQAkKh4G3wqQSpQXruMIdS7vCJVOKw72TClFKkROzwgk5OYCf0hr3izqQSkhuNSlhrsu/wrHrTAwMvClEadUCHwqHPxyyW6ZwBWrmIwUpfdlfsivcEbvCgZJV4SZyhcPAm5KUICeuCvflMuHUFQ73BKlF6fAqcQyAnEDh5J3cfmzLSxwDYjDwpholNkj5k0Th2I2UULjJQuEwNqHeP24VOrnHRScXCvcHUzjeybUrXMGaVUi9atn2IBQOlKBw1pV4dlhig5SgFCqZiRSsFm0PShXugEnh2DFgmtM+Be4JUpDSCXRyJVteyG7eyRWpFH3xDLdNqPiPO2FWuPlM4XabFA6UuMKBEj6+KUnJReHQyWUKN4EpHAbelKXkoHAYEezkQeHwRDxum1CUklTh8KIA26dwVjgjVJHUpbRQ/JQilNiW11g2jMO3vMIjR1XPTypT8q5wS5wUDpPLBRVNblA6DoXbwRVun3QYhylcoQZlSd06d37uQXeFE48K9HNWuARFkxt14eJRB4XbKlG48RKFi0/IQ4pT+nI/3lyRSh46ueIr3PDkTm7VRqQBJaFwexwVrqd4n8JJ4ao2rKA8JanC7UZ2SxUOndy4coVJB0rIbv8KN+czJaNMcVKe0g5fCodzt0nhRiU0JvUpLbJdZ8K3vHAM2BTt5CKVIoOU4UKNSAdKUDh+I6VZ4UCJK1yoYT4dKB3DH86LwvFObgLuCVKekuuIILuYWshJPO4JUryyXzrkpHAdJApnG6QMx2QmLSpCSdbJ7cYvpjZveU0PYWxC+bq8JyW7I/sUfhRueFzuIqQLJaZwHdw6uVA4A2MTelBCKsk6ub0kwzijpuQgbSittylcO6Zwzivx0xNrk0aUzFteW522vNDJtSlcXN28OlGSKly31BQu8f9FSCtKcoXrzhRuAhRuFJ5X0oXSEbHl9YWS44jgePsuXHhWRdKosp864qhwXZy/wkHhhifUJq3q1JFIKu3xpnDYp0islV03Sp4UzrwLN9S4UoV0pMQVrqtU4YbMupqNdKO01XLlsuwYMFBk95yNFUk/Sj4VbrJxjXSkJBTuAFM43smNyVJCW0pC4ToxhbO8LRSP5NaMUjs8wGRTuG7OChe+mkRaUmIvnrFUEp3cFeE8pGNdb+dD4YYaN0jLunlgj1XhFqeicPG3KmhKadt2bwr3mdKs22VJW0peFW7Of4uTtpTW24dxuqYonHVEcHL4DmlLaZdJ4UR2c4WbNOoGaUwJxwA3hRuF5NaU0pHoIOU+ucJNCN8tTDpTMitcF5nCrfhvDtKZ0j62C9eNjQgOmonk1pgS+wrH9ylG1SOt695unCg7IJXMndz++Ao3634F3SnZFQ7ZbVK4OXfPkeaUFm+VKhyehx36nxwUUEInV/Zo9eBwZgoo/WFXuB4Whdswqy4FlNa04woXkRN0cqffz0eogJJM4VbcjQy8BZSYwu0VCtdmyAMiCijtP2Dr5Jo3BQbNuUaogJJU4cIP8xJRUA/2p6Jwcx5FBt6CatVt25dU6uSkcDPvYuAtoLQ/QslJ4Sa0CZIbde7xYty1aL1kqV//zUFyR6vEk55M4ZKvM5nzsAQFhXrao1NHp0erVzwTYxNBnXu+P6pw3YXCtXnRmkQF9fTlYhwDTAo3bWaQ3JbK9+Ql24UbMOcGZSdRQeU99+plisLhRsoB4SC57ZW91es33cyd3GmTH/Izd1DnHvZ+0xMjgks2Tx5wrQTxCirvg7czNmzqvbdX3y2T//2wNUkqqEx3Hr7u3fv1wzvp3XX7BIxeGWvtqfmRAAAAAElFTkSuQmCC;" vertex="1" parent="1">
          <mxGeometry x="580.5" y="257" width="34.5" height="35.33" as="geometry" />
        </mxCell>
        <mxCell id="U8Zr3fgWpziJldObrb0T-12" value="" style="rounded=0;whiteSpace=wrap;html=1;container=0;movable=1;resizable=1;rotatable=1;deletable=1;editable=1;locked=0;connectable=1;" vertex="1" parent="1">
          <mxGeometry x="570.78" y="430" width="198.44" height="150" as="geometry" />
        </mxCell>
        <mxCell id="U8Zr3fgWpziJldObrb0T-15" value="&lt;b style=&quot;font-size: 14px;&quot;&gt;Upstash&lt;/b&gt;" style="text;html=1;align=left;verticalAlign=middle;whiteSpace=wrap;rounded=0;container=0;movable=1;resizable=1;rotatable=1;deletable=1;editable=1;locked=0;connectable=1;fontSize=14;" vertex="1" parent="1">
          <mxGeometry x="620" y="437" width="60" height="30" as="geometry" />
        </mxCell>
        <mxCell id="U8Zr3fgWpziJldObrb0T-17" value="" style="shape=image;verticalLabelPosition=bottom;labelBackgroundColor=default;verticalAlign=top;aspect=fixed;imageAspect=0;image=data:image/png,iVBORw0KGgoAAAANSUhEUgAAA4QAAAJ5CAYAAAD2Nf5IAABg50lEQVR42u3dd5idZZ3/8ffM5E5PSEIanVAEaSotomKDuPbO2iuaVXQtxP5bFevq6thrRN21YltRimhWRZqMSlG6lAECoQXSy8wz5ffH9x4ZYiBTnufMOXPer+s6VxTInDNPO/fnLt8bJEmSJEmSJEmSJEmSJEmSJEmSJEmSJEmSJEmSJEmSJEmSJEmSJEmSJEmSJEmSJEmSJEmSJEmSJEmSJEmSJEmSJEmSJEmSJEmSJEmSJEmSJEmSJEmSJEmSJEmSJEmSJEmSJEmSJEmSJEmSJEmSJEmSJEmSJEmSJEmSJEmSJEmSJEmSJEmSJEmSJEmSJEmSJEmSJEmSJEmSJEmSJEmSJEmSJEmSJEmSJEmSJEmSJEmSJEmSJEmSJEmSJEmSJEmSJEmSJEmSJEmSJEmSJEmSJEmSJEmSJEmSJEmSJEmSJEmSJEmSJEmSJEmSJEmSJEmSJEmSJEmSJEmSJEmSJEmSJEmSJEmSJEmSJEmSJEmSJEmSJEmSJEmSJEmSJEmSJEmSJEmSJEmSJEmSJEmSJEmSJEmSJEmSJEmSJEmSJEmSJEmSJEmSJEmSJEmSJEmSJEmSJEmSJEmSJEmSJEmSJEmSJEmSJEmSJEmSJEmSJEmSJEmSJEmSJEmSJEmSJEmSJEmSJEmSJEmSJEmSJEmSJEmSJEmSJEmSJEmSJEmSJEmSJEmSJEmSJEmSJEmSJEmSJEmSJEmSJEmSJEmSJEmSJEmSJEmSJEmSJEmSJEmSJEmSJEmSJEmSJEmSJEmSJEmSJEmSJEmSJEmSJEmSJEmSJEmSJEmSJEmSJEmSJEmSJEmSJEmSJEmSJEmSJEmSJEmSJEmSJEmSJEmSJEmSJEmSJEmSJEmSJEmSJEmSJEmSJEmSJEmSJEmSJEmSJEmSJEmSJEmSJEmSJEmSJEmSJEmSJEmSJEmSJEmSJEmSJEmSJEmSJEmSJEmSJEmSJEmSJEmSJEmSJEmSJEmSJEmSJEmSJEmSJEmSJEmSJEmSJEmSJEmSJEmSJEmSJEmSJEmSJEmSJEmSJEmSJEmSJEmSJEmSJEmSJEmSJEmSJEmSJEmSJEmSJEmSJEmSJEmSJEmSJEmSJEmSJEmSJEmSJEmSJEmSJEmSJEmSJEmSJEmSJEmSJEmSJEmSJEmSJEmSJEmSJEmSJEmSJEmSJEmSJEmSJEmSJEmSJEmSJEmSJEmSJEmSJEmSJEmSJEmSJEmSJEmSJEmSJEmSJEmSJEmSJEmSJEmSJEmSJEmSJEmSJEmSJEmSJEmSJEmSJEmSJEmSJEmSJEmSJEmSJEmSJEmSJEmSJEmSJEmSJEmSJEmSJEmSJEmSJEmSJEmSJEmSJEmSJEmSJEmSJEmSJEmSJEmSJEmSJEmSJEmSJEmSJEmSJEmSJEmSJEmSJEmSJEmSJEmSJEmSJEmSJEmSJEmSJEmSJEmSJEmSJEmSJEmSJEmSJEmSJEmSJEmSJEmSJEmSJEmSJEmSJEmSJEmSJEmSJEmSJEmSJEmSJEmSJEmSJEmSJEmSJEmSJEmSJEmSJEmSJEmSJEmSJEmSJEmSJEmSJEmSJEmSJEmSJEmSJEmSJEmSJEmSJEmSJEmSJEmSJEmSJEmSJEnb1eIhUKNa2rmiBWgF2vJrCjAdmJr/9xRgWn49mF5gDdANbAE2A5vyqzv/+77li5b0ecQlSZJkIJTGLgBOAmYAc4HdgV2BvYE9gN2AOfnfT8thcGq+xlt38KN7gZ4cBjcDG4H1wF3ArcDK/LoNuDMHyE2GREmSJBkIpfKDXwswgRjt2xU4ADgEODgHwN0GBb+2Gn2srTkorgE6gZuAvwJXATcD9wJbDYmSJEkyEEojC4FTgb2AQ4EjgaOAfYB5wER2PNJXawUxtfR24GrgYuBS4Fpg9fJFS3o8s5IkSTIQStsPgG3AbOBhwBOAxxEjgfOAyQ34a/URU01vBi4Bfgf8GVgFbF6+aEm/Z16SJEkGQjV7EJwBPAI4Pr8OBGZRfyOAo9VNrD38C3AWcCFwqyOHkiRJMhCq2ULgJGA/YAnwzBwIZ4/DEPhgtuZweB5wOjFyuHr5oiW9XiGSJEkyEGq8BsGdiKmgzydGA3drohD4YDYDfwN+DpwB3AD0OKVUkiRJBkKNhyDYBuwCPAV4GXBEDoZ6oB7gFuAc4DTgMlxrKEmSJAOhGjgI7gmckF+HEdVBtWOrgV8D3wcuADYaDCVJkmQgVCMEwdZBQfBlwEFA8sgMWz+xz+FvgW8B5+OIoSRJkgyEquMguAB4AXAisWXEBI9MKdYQlUmXEwVougyGkiRJMhCqXsLgDGKN4JuBR9OY+wbWu37gDuCHwKnA9VYllSRJkoFQYxkEJxJbRryN2D5ipkelcr3A34GvAz8gtqtwtFCSJEkGQtUsCLYA84HXAkuBvbx+am4r8Hvg08AFyxct6faQSJIkyUCoqoPgROCJwDuAx2Pl0LF2J/BNYsTwNkcLJUmSZCBUVWFwHvAG4E3ECKHqQw9wIfAR4Dzc2F6SJEkGQpUYBicARwPvB54ETPKo1KXbga8Q1UjvNRRKkiTJQKjRBMEWYBrwYuB9wCKPSt0rgF8AHwKuXr5oSZ+HRJIkSQZCjSQM7gq8C3g1VhBtJH3AlcSI7jkWnJEkSZKBUMMJg63Ao4CPAcfhBvON6i7gU8CpyxctWefhkCRJkoFQOwqDCTge+Dixx6DXRWPbBHw7h/u7XFcoSZIkA6G2FwRbgMnAy4mphnuM41+3D+jfzvXfOk5/3x7gTGId6LWGQkmSJBkItW0gnAGcRKwZnNPgv85mYCOwHrg3v9bm/78VWLOdQDgZmEEU0ZmZj8F8YKf8z6fT2FNn+4CLgLcDl1psRpIkSQZCDYwMzgHeDbwxB59G0UNMibwLuBm4BrgauDX/s3uALUB3fhU7CkJ5i40ETMwhcSawgCiwsx9wcP5zD2BW/m8a5d7pB/4GLAPOXb5oSa93gCRJkgyEzR0IdwY+DJxIY+wvuBlYCfwV6AAuy2HwLqAL6KtiSmQOzi1AWw6JuwKHAEcBRwAHAnNpjGmnf8+h8FeGQkmSJBkImzcMzs9h8NV1HAb7gXU5xPwB+D1wFbAa2DLW6+HyiOIMYG/gSGBJDoi71XnA7gROBs4wFEqSJMlA2FxBcGCa6MeA1xJTJOtNVw6BvwHOAS4H7gP667EoSj6mEFNN9wSeCDwdeAwwrw7vr17gm8Dbli9assW7QpIkSe411zzmAacQI4P1FAb7iZG/i4CfAucBdwA99V4Zc9Dn6wKuX9q54gbgNOAg4Fn5dQD1MWrYC/wC+E+iyI4kSZLkCOF4l0exZhJ7DL6+jsJgH3A78EvgR8ClwObxsj3C0s4VrcQU0qcCLwWOBqaOYRj8JfA2YKVbUEiSJMlA2DyBcDpRTfTkMQwkg/UTFUF/TIymXQ10jdeQkoPh3BwMXw0srvF5GBgZfAdws2FQkiRJBsLmCYOTgLcQm87PqIMgeBfwE+C/gb8tX7Skp4nORQuwcw6GS4lKpZNrFAbfjiODkiRJMhA2VRicAPwr8Dli/eBY2gT8GvgScDGwtVnDSR4xXAi8hJjCuz/VbFsxME10GY4MSpIkyUDYdKHjycByYNEYfpQe4Args8AZwDqDyQMC+wHAm4AXERVgywyDjgxKkiTJQNiEQaMlB43/IQqZjJV1wHeBLwA3Ll+0pM+zs91zNQX4F+Bd+XyNdrSwN4fvtwO3GAYlSZJkIGyukDGfmJr5wjE6v33AZcAngbOog43kG+CctRL7GL4deDkjHy10ZFCSJEkGwiYNFRBFSv6DqCg5FnvfbSX2EvwIcIOjgsM6fwOjhc8ligAdMMz7sxc4E3grcKthUJIkSQbC5goUrcSo4Fcpdz3aUN0JfBr49vJFS+7zjIz4PLYBjwQ+BDyFoe0bOTAyuAyniUqSJMlA2HQhogU4iNjX75Aav30/cBXwPuBXzbSVRMXncwHwHuBEYPoOwqCbzkuSJMlA2MQBYjbwZaJaZWsN37oPOJcoiHL58kVLej0bpZ7XmTkQvgeY/yBh0E3nJUmSNGKtHoKGDw1twMuItWe1PJ8F8DNiL71LDYPlW75oyXqiQNDbgVu2EwZ/mf+dYVCSJEkGwiYMgy3AI4jpglNq+NZdwLfz+3YaRioNhQXwE2K/wusGhcGBNYNOE5UkSZKBsEnNIqZr7lPD99xCbHj/XuAOw0jNQuE5wFLgcuB0HBmUJElSCVxD2KByVdHXAJ/joYuOlKkrh8EPAfcZRsbknB8ErAVu9/hLkiTJQNicwaAF2I/Y8++wGr3tVuBU4IPAGsOIJEmS1PgmeAga0kTgdcDBNXq/HmJLiw81UhjMwXlyfk3If7YM+p26iVHPrUCPIVeSJEnNxhHCBpNDzuNyQNu1Bm/ZR1SzfDOwqt5CUz4ebcS02fnAHsSayv3z/945/7vJwLRB13w3sR5yM7AeuAO4Cfg7cBuwkpiaudWgKEmSpPHKEcLGM52oOLlLjd7vj8Q+eHUTBnMITMDuwBHAMcDhwCJgLlFxdaSdHb3AuhwQrwD+tLRzxZ+Aa4E1QL8BUZIkSeOFI4QNJAehZwDfA3aqwVteD7wauHj5oiV9dfD7T8wh8LH5OBwB7MYDp4KWrScHxL8DvwN+k4Piuno4JpIkSZKBsHkC4ZwcBp9Wg7e7DzgJ+MlYBp8cgqcRI4AvAP6FmBKaxugjrQUuAX4GnE1U++zx6pQkSZKBUFUHoxOISp8zKn67LuBTwMeXL1qyZQx/3+nEdNDXAk8ipoPWy96ZXcRG8T/Or06DoSRJkgyEqiog7Qz8AHhKDd7u58C/LV+05J4xCoKTgUcDbwSOB2bX8anpJaaTfgf4PjFi6FRSSZI0bCmlNqJY3mj0FUVhJ7UMhOMsDLYAz86BY1rFb3cD8BLgkloXT8kbr+8PvAF4MbCgga7RbuAvwBeAs4BNFp+RJEnDDIQvIGZFjab9c1FRFN/3aGqorDLaGKYDr6pBGNwItAOXjUEYnJlD7zuBQ6ifqaFDNRF4TP7sPwc+vbRzxTXLFy3p9fKVJElD9FiihsNoAuEkYhBBGpJWD0FDOBI4tuL36AfOAE6rZYhZ2rmiZWnnikXAJ4EvA4c1+HU5E3gF8EPghKWdKyZ7+UqSJMlAqJEGpsnE9MmdK36rTmJ0cF0Nf7cJwBOB7wKvz2FqvNxXh+SA+4GlnSsW5Gm/kiRJkoFQw7Iv8FSqXUvXDXwD+Gutpoou7VwxCXgR8C1iekTbODx3c4BlxLrCfQyFkiRJMhBqOKFpYCP63St+q4uB79Zi24Q8RXQ68Bbgc8De4/w0TiT2T/wmcEQunCNJkiTVBYvK1Lc5wHMrDu4biamNd9Qo4E4H3g28jeqL5NSLNuAJwDf6+/vf8ozr/vfCsw54vltTSNJ2pJRa8vfeaGdV9BdFYWEvSTIQNqYcno4CDqr4rc4FflP13nn595mRw+BbmigM/kNff/8jb+la/6WLNq56Cx3t57N4maFQkv7ZXOC9RKfoaFwAnOrhlCQDYaOaCDwT2KnC97gP+OryRUvW1uD3mUysp3s7MKUJwyC3dK/noo2rDtvUV3wFWEpH+x8NhZL0T6YDJ1DOcgkDoSTtgOuZ6tdCogJnlX5H9KBWKheQeR0xMti0YfDiDavY1FdAjPp+CngkHe0WmpEkSZKBUP/k0USF0aqsA74DbKg4DLYCzwH+A5jVlGGwaz0XbVjFhgiDg8/v54EDDYWSJEkyEGpwiJoALCGmWVblT8D5VW4zkdcNPgo4BZjflGGwez0Xb/zHyOBgLcR2G58AdvGqlyRJkoFQAxYCiyv8+V3AD6h+E/pdgY8CBzZlGNz+yOC2ofDpwEfpaN/Zy16SJEkGQgEcCuxV4c+/DvhdxaODE4E3A8cx+tLhDRcGb+1ezx+3PzK4rQnAS4G30dE+2UtfkiRJBsImlqeLPo6oslZJXgF+Cayq8HdoBY4HXgukZguDAyODG3ccBgdMyuH5ZXS0J+8CSZIkGQib1wzgMVQ3qrYaOBOocrPehcC7aLJ1g4NHBocRBgfMAt4PHGuRGUmSJBkIm9eewMMq/PmXAFdWNV00j3C+kqiiOeYZjaiiugq4miikcx5wMXApcCNwL7GmctRhcAQjg9vaC/gIsK+hUJIkSbXgxvT15xCgqgIj/cDZwOaKwmALUUDmRGIa5FgogNty8L0YuArozMGwK//7CUAbMJUYxTyAqIb6mPz5d2IYI7SDNp0fyprBHXk08D7gZGCtt4MkSZIMhE1iaeeKNqK66MSK3uIuqt2IPgGvAPYZg8O3EfgL8BPg98CtwJbli5b07eDv3bK0c8VfgB8R0zYPI/ZNfAYxYtc2lDA4aNP50WoFTgAuo6P9qyxe1uOdIUmSJANhc5hOjBBWNV3wr8BNFVYXfXgOM7WcitwFXAR8FfgdcN9wf7/83xfAPcBvl3auOA/4GvDyHHB32945+cfIYHlhcPB1sAy4lI72i1i8rN9bQ5IkSVVwDWF9mU91o2u9xOjgxip++NLOFYnYPmHPGh6vlcAHgJcBP1u+aMm9ZYTd5YuWFMA1wIfyzz4T6N5eGLy4/DA4YC9i6uh8bwtJkiQZCJvDvlS3fnADcOEQplCOJAy25CD4HHYwxbLEcHs+UbzmM8sXLbmj7N9r+aIl/csXLenK73Mi8DGiAM1QN50vw3HA6+hon+itIUmSJAPhOJZD1b7AtIreYiXw9wp/hePz569FGDwdeB1w3vJFSypdY5eD4T3Ap4CT+/r7bxvGpvOjNQl4I3CUVUclSZJUBdcQ1te5OJDq1g9eRexBWIXpwPNqcD31EEVj3gmsqnAt5PaC4ZalnSt+cHPXunUdG+/47Ma+YlGN3nq3/Pu+BljjbaJmlFJqIYptDVQIbsvPyj6ik6iXmNbdWxRFf5Mdl7Z8XCYQnbwDL/LxGXj15FdTHaNxdq7ToHugZdCf/fkeGPizByia8TynlAbfD4OPE9scp4H7ocf74SGPZ+s2192211wvUYOh8DgaCFWOiVS7/+Cf8k1bhYcT2zZUqR84B3hPrcPgoFDY09bxmTN76Z8AfBHYpUZvvQT4VzraT2Xxsl5vlSF/kU0kthAZrQ1FUWwdg0bNTox+CnZX/vz9Y3T8+oF1RVEUw3jfgU6xKcAeREfZw4FFxJraGflzTQA25de9wB3AzSml64Ab8v/fSrRU+hv8Wh44JgmYC+yaj8ce+X/PI6okTyU66Kbk/37g+GwhtrG5G7g9pbQSuAm4k+go7KnFcUopTcufcUfmUM7yg8kppXkjvG7XF0XRPYbneiqwIJ/jvYHd83fOzsDsfC0M3Ac9wLr8Hb8mn9M7Ukq3EdsurSSKpm0eJ/cDOZS05ut+AbHufm+iE3V+voZm5rbVwFZSxTbH6V7gzkH3w8Bx2jIejtMIr72WfEz3AA7Oz5k98zGdnv9dyt8t64nlSHcBt6aUbgCuzcdxPdBvSDQQavhm5y/2KmwiNmYv/cZc2rmiFXgy1a19HHBZDoMrxyIMDuhdfHIvHe2/JKb2tufGWdWmAm8mqqhe760yZI8CPs/otnHpJgoX/abGn30h8KXcyBmNs4CP5i/vsTh+a/K1e80QGySTiannTwH+JQfBuTngDGX2RG9u9N4DXJfvmXNTStcCmxqpcZIbZxPy7/9w4Bhin9JF+fqYSkwrH+7Sj758PWzKgfB64ELgj/k4rSuKoqqOp1cTsx129JknlvRsXQL8egR/bzPwLqKCda3O9aTcBjgMeBxweA44c4DJ+ZgMZwZRf35+bc3B52Zif94LU0p/yx0mXQ12T7TmkLcIODrfEwfl8DI9H6eRtGu7cghcnQP0X/JxujLfI93jOdjk4zonP/OfRuzJvCgf60lDvO7687W2LofrC4DfpJT+CtxXFEUfMhBqSOZUGKrupbrtJmYQxU+qLCZzN3AKcPVYhsF/WLysoKP9NKLX8SOUMwq1IwcBr6ej/f+xeFnh7TLka/OR+QttpLpyZ02tTcrnfLSzBq5k5GvFyzh+97CDEaFBU+EeQRRwehoxGjKSz92WP/cMomLzU3Mj7wLgRymlFcCaem7c5eMxAziS2A/1ycD+lLe+vDUH7Ck5dB1CTPlfC1yRG3FnEj39ZQeGXXOjs1b1C+bk13BtzI3hqs9zCzG6+xiiKNtjidGYMgqJDYTMSfk7ap98Lb0VuCV3AvwipXRRvkfqcjRn0HTx/fOz4WnEyNU8yltiM3CcZgH75Y6ErTlEnwucnlLqyJ0l4yYY5mO7AHgWsc3W4TlYj/R6G3iuLMzX9Em5E+K0lNIvgTscMTQQascGpkJV4Xbgvop+9h654VqVXuA7wP/VRRi8PxR209H+rXze3jnKRvNQG3EvAX5KR/uf3ZtQ46hBsitRJOo1uTFc5jrqgQb383Ij70JgeUrp/4qiWF+Hx2JnooPtVcDi3ECtVXiaBRybG3JLiVHxb6eULqn1lOkmuO7b8nfnc4AX54Azo0ZvPxCu9gdekDsBfgCckVK6rZ5GclJKU3PHyEuJGQO717DdOpmYrn5APkcXA99JKf2GGPFq9Gm3U4mZGG8HjuL+aeZlmg48IT/LXgl8OaV0VlEUa30KGAj14HYnesmrcDMV7T+Yv8gWVHhcrgGWL1+0ZEvdnbHFyzbR0f7Z3Ih9aQ3up92ANxAFgjZ5y2gcNIoXE6P/T6b6LWum50blY4FfppQ+DVxRFEXPGB+HFmL073iiR/1xFTXOhmogrJwIPBP4SUrpq8B1FU4lbaYOkLnACTl0HzzG7bAZuQPgaKJD5isppZ8Da8cy8KRYJHhIvh+eS22WZjyYgTV1T83h5lzg8yml84CtjRYM8zW4C9GR/er8u9UiXB9DTIf+RUrpY8C1TiOtL247UT92reiLoY+YE1/64vi8VcZRFTbkCuC7xHz0erWGmDZ6YY2+mJ6dv8ClRm4YTwCeDnwzB6G2Gr79dKLH/wfAK3JP+Vgdh1ZiBOIzwLeIUcwpdXSqFhBb35wGvCylNG1Q0RMN/5p/IvA/xDZGj6B+OuUnAEcQa4a/BjwqX5s1DysppTnEuuMfAa8d4zC4rSnElNXvAB8Edmmk+yF/1gOBrwJvqlEYHGxafvb+D7Ak3xMyEGqbYDW/okZRD3BLRdMtpxA9PlW5Cfj58kVL6rdXOqZu3gj8BzESW7Wdic3qp3nnqIEbxs8Dvky1W+3s6LvvQOBzwAdSSvNr3bDLVVyfAXyfGI2bXaenrA04lKis/EFgrqFw2CFnFrF277s5UEyt0487nRi9/D7wwlzkqdadI18CPk5Maa3XNup84GTgVODwsQjPIwyDh+bP/Eyqm5E2lGfvkcBy4AV5NFgGQg3cq4xs4ftQA+FtFf3s2cRU16r8mlj8Xt8iFF4M/BfVTc0d7DjgGDerVyM2jolpV58gpiWOtZnA2/K9u2utgk5KaRKxpuarRCGHRvgungm8Bfhsxc/98Xa97wL8J/AhYtp/vRsYRfoisLQWoTAHqiOJGQMvIqYYNkK77anAN4An5Cnw9Wz3/Jw7pk6eN3sSI+XPaoBjZyBUzUykuqH7rUSlvyrMJwo2VGED8Cuq2zux7FDYQ/Sq/pAohFOlnYn1Ho4SqtEaxw8HPklUPKwXk4gKe58Bdq86FOYG9utzSNitwU7jJGLKV3tKaTdHCnd4ve9LjHid2IDP6/k5xL6hymnVOQw+NofBxzRYu7SFqJr71RwKW+v0WpxFjO4fz9jMyHgwe+Tvg2N8lhgIFSZQXYWxjVQ3arUb1a13uRW4sq4qiw4txH6KqNpWteOILQGkRjGL2Ev0UXX42dqIaaynUOHUzTxd9oT8PnMb9DwOHKsPUPs1SI0UBncj9qp9NmM3Pa+Me/b9wEsrXO91CNEZc0gDn/IDgE8Dh9ZbsMkh9SVER049jsTtB3wYZx0YCPWPQFhV7+FmYsPVKiyknP2Stuca4K6GOov3ryf8L6DqkvbzgZfS0T7R20cN0EBuzUHo+XX8vZOAlwHLUkpTKjgGLcRIyIeobs/ZWn5nvQJ4Y14LqQeaQxQbe3qdNsKH+7u8Hzi27LCTUlpArBc8Yhyc80cCH6O6WVMjfeYcSEz1rucR6scBb6niuSsDoYGw4kCYC+HMo5qez35iQ+2ehjuTi5f1AWcC/5t/j6q0EMUJ9nctoRrAPkTlwHqfNjeJqKr5gjLXteSG2UJiVG3RODmnU4B/Bx7vdK8HnOtJRAXHFzN+tvbaE3hfvobLPE5vICrrjofrpyX/Lifl360eTCSmKz+s3m8bYguMx/gsMRB6HqpbRF1QzTq8NqqbWtUPXN9g00UH20gUXrix4vfZg6gW5n2sem4kTSE2Wj+oQT7z7Nz4PbjkZ/zLiY3fq9ZDrB3fTGw3VOVzdCHwDupoVGSMw2Arsdn3m2mMwijDcSzw6hKnjh4JvI7qZhkN6AW6iL17u6h2jf9EYn3w4jo5ZwcDL2yQNsLc3EEw1SfJ2HAPkPFvC9VMGW0hetOr0E2jTRcdbPGyfjrarySqj32swvusjZiC9x3gDi911aEZxJYsj6Cxps4dCLwzpfTGoijKWIO9X278lj2johe4F7gBuJrohFpNTFkvgJ2IdWB7EVsEPSyHuDKfSY8HnptSOtWNptmVWCdbRUDuz9/ld+fXXcQ+uP35+3infG4XEvtHTqLckbdJxL6Ap6eUrh3Nhux5auDrKb+oUj/RIXsLcBVwPbAq/7P1xLYaM/L7HpDviT1KDiG7Am9KKV1SFMWmMbwW9yBGqhtpbd5xwONSSr8ZzfUlA6Fqq43qCgoUORQ2sn5i4+sXAEdX+D4HEWWk/9dLUnVoEvAvw/w7A5WRb8uN3g35n7fkxtwuuUE3l+o6pVqIYiBnpJR+Opqgk6eePpdyK6t2A5cDPwd+l4PgRqB724ZUnoI1ITd69yQqDb6AGKEp4/gNjAD/ErhzB//ttcSU+h2NWEwlKk6OdpTttnychmsLw6zOnUfOXpmPa5k2EUsozgX+QOzPew//PNrVls/n/Py98FRiCuOelDdCtA+xFvhjjHCkLV+Pj8jPhbICax9RiO4c4PQcBu/Lx6hvO/fE4GN1FPCvOYyUNevpeKJy5m/HMNg8Of85nHPfw/0jqT25HZPysZpWg8wwmyiAcz4xw0EGQjWAFhpt3n9H+1RiiuVVwNW5CEw1YpRwFfA1onpaVdMgpgPPoaP9bBYv2+plqQbVC9wOrAD+Lzfi786Nk+6iKPpzQ3JSvubnE9VKl+SG3K6UPy1qJjH173xGNwK/cw6EZX3f3gR8AfgJcMeOGpz53xfAOuCKlNKVxPY4LybWAJYRVA8HnpxS+uEOPs9pwE+H8PP2ytfBaEeQ/kCMRA3XwDEbTsjZnxhBK2sK5BbgAuBbOfSvHkLHxKYchK5NKZ1JjIL9G1EsaVYJn6mVqDB7KjHyNtJ253OIUcwyrAN+RGz9cFVRFDs8b0VR9ObAcXNK6RbgbOCJxPTnx5Vwr87JweZCqivqV0b7vj8fv2uBPxIV0m8mRp435H8/Mz/D9iSK/xxDzDSYXtHnPo6YUfE3vxYNhGoM/USvXKOEwSnAUuD/AX8hqm5dX+l7Ll7WR0f7GfmLYUmF73QssHd+qEuN5u4cUL5DTHvs2l6oyP9sa36tTildQ4yMH0rsy/lCyt/K4SjgOSmlr4+ip/9gylk/2Q9cCiwDLiyKYkRFt/LvcWdK6cvAJURV5MWMroNvcg4Kp/MQPfu5sb7DBntKqYty1j72FEVRiwZ5CzHKVFbBoFXEOvTvDDEIbu9Yd+cOgPfk77yPUs4Uzf1zKPjZCP/+bGL0qowO5buI/fV+AGwcyT2a/86mlNKvciD6YA7Qox09f3LubLmqjp+7Z+UwfVkOgT0Pdgxzp8f38zP2ccRo+JMov7N7lxzODYQ1ZjGK8a+qkbze/ACpQqLMBfkRBt/A/Xt/PQX4FB3tu9WgQue9xIa7VU5/2BN4nNVG1WD6iF7pVwLvLori0qIotg61UVcURX9RFFuKovgTcDIxOnMp5XZUTSaKwYxmTdhjKWef2auINUHnjzQMbiecXUCMIP2phM93NOVOi20ku+RAXEab6kpiVPPzRVHcPdp1mXkN7PeItbzrSvh804jR4JGOhO4H7FvC51hPbOHyraIoNox2amZRFH1FUdxKrAH9FqMvxrcbFWzVUYJuYkT0xcCbiqL4db7Oioc6hvl5210UxSpidsIrgLdRfvG8NuBJKaXJyECoUk2hms3j+4l55lWYSFnTSe4fGXw/seh+4Lp/BjFaOLPSox/TUn+fG6pVaSPWY/gAVSOFwbOIkb0VRVGM6lmSR4HOIkqXr6DcypqPAp4wkoZdSinlvz/aRuEWYpPzv5RZuCU3AK8kqqquHOWPW0CMqDaVfF08nnJK+99ETOM9ZyhTH4ehF/gx8F3KqbJ51KDv0+E6uIQOkn5iNPr7JR8niKJMH83f26O6NIiRrnrap3MTMd38RODckY6e53C4Bvg20RF3ecmf89DcySIDYdPpzTdqJd9XVDM1uMoRwhZi7cNow+BkYmTwQ/zzYvEJRCGEN9LRXvWeQffkL+Iq1/gdxfjZ30zjPwyeA7y1KIrrygo4+edcmRvUv6W8kcKpRCGNkeyhOJNyqvz9DfhVXvtUqnzcziPWYI1m5HES8OgcgpvJZKKAy2g7Xu8jOi7PL7taa27AbwaWExU4R2uvkVzXg9ZajvYaWUdMp91Qwf3QT6wZ/k9GX737EMqfxj5Sm4FPAR8qiuLOMord5JkKFxAzF64r8bMuICo9y0DYlIGwqrBQyQhh3iNwNdXscdgCHLK0c8XIe9YiDC4lNoLe6SEaeicDx1c63TJGCc8p+YG5rYXAY5w2qgZwJTEt6+aKGnM3AO/K71OWxzKyEaDpREGG0bo0P2+r/A46jeGvQ+7PDc3V+XxOoLrKr/VqCjFL44Z8HEZSIbufWMt1ehWhf5DriEI7ozVnhB0dE4iRn9F+T91KFJCppDBc/rkdxCjkcN+jO4f7lTmwzqqDa7SHGM37LCUPPuTOiw5iVHVtST92KnCAm9TXlkVl6kMPFfR0ZdMYWc/2UNxJTButokf44fmLY/i9mfevGXz/EB7G8/J/dx0d7TdWWHl0FfcXwKiiI2YSscD7+4xdVTNpR9YBH6m6MZdS+ltuoHydckrJzweWpJQuG+bnnljC87ePKCxSWVDIx2wlcAZRAKc/N2y7ic7KdcSMkHVEMYrb82tVbvwO/Ps1NF+5+LXECMnM/H0yj1g/tg+xVm6XfP3snMPj5O18Z95GrDWv+tldENVbXzHK9t8ERjYjJVFOdcp7iG1WqrSVmGb7otyOGNgOqyu/99p87d+b74M78j1xz6B7YeC+GGsXAJ8oimJ9Rc+P3pTS6UQhnVeXEPhbiVliE6luaZIMhHWpqPDhNoPqygOvzF9gVfz8PYDDl3auuDWPRg4nDP4bUSlsqGscjiLKTS+jqqm7i5f10NF+Zg6qVc2NPyI3Rm71llId6ssNrLOr3sA8N1DOJLY4OLGETpgJucPlKwy/866MXu7WlFJLlXuaFUXRk1L6YX4GrskN27sGNb435rDX7abRDzhufbnhv45t1mGmlFqJ0Y6ZxKjabvm7bU+iMvQexOyOc4Arqz6uOfhfl8/vvFH+uD3GMBBOJEZlqz5WlxEdSy35Xrib+/dG3ZTviS11fj+sI0YGb6/4fTYRU5KfTjk1IPbJ14uB0EDYdIFwXUU/e2IJD/4Hszo3Fqr4+VOJdRm/YqjTae8Pg+9neAveW4lewF/T0X56haOE1wEXEZtCV2FP4GA62ldWuseiNDK3A9+gRiPYRVFsSSl9Iz9H9ijhRx6SG/FX1Pi4tRJrthIjm444HFcSo7d9Xq6lhcWBML0KuDJPg2vN380TiU7brtEWVhqGe3LjfbTf23NG8Hf6GN061QELiZH/dRUfq/VEEZa+Bu4E+T3whxp1NlxB7L34/BJ+5DxiRH2jT5LafdGoPgLhvRX97JSDQhXupYJ1QIM8hViAPpQwODWHwVNG+EU1i1hPuLCy32bxsk3ElKyqvvinEPuJSfXoF8Dfatyw+hsjWwe0PfOBw4a5rqWsBvBRwF5Vr6nJxUcMg9Uf4968Zcq6oihuK4rinhp+hC7KmQkza4RtnTKWx+wOHJNHYGtxrho1DG4i9nhdX6NrexOxpUUZHVczqLoKvAyE9SZPibyjpIbDtiYAey3tXFFFQ6Kbajdd3QN48dLOFRN2EAa3t7XESBtdL6KjvcqR8wspp8rbg8ZO3H5C9Wct8HOqH+Ha3jPqp5TT4ZbyM2I4z4ctlDOKsS+xH+IkLyWVoIz1qCNpU5Q1G2oK8DpiCq4eXCdwcY0D7SWUUwBrks87A2GzuqOkh/T2Htp7VXFj5SB7MdVUGoVYI/Bi4KAHDbT3TxM9hZGNDG77AHodMS2sKrflUFiV/XH/HtWfy4HLat3Tnt/vcuCykn7koQyvw2UjMUVvtCYAJwGvSilNtfqeRiJfN3MZo60QcmGkW0tq6zwe+EhKaRfvhwd1GbHmsZZWMvo9TcnP2ameQgNhM7q9wmC1iOoKy1xT8QNnb6IQy9SHCIOjHRkc7ADghXS0V3VvdAHnUt1IyXyGOs1Wqo0+4HyqX+/zYDYAv6OcfQn3ZHgFEzZS3rT6ucTeaO8H9rQRrBFoI5ZizB/Dz3BtSW2dCcBLif0zm3H/yx3pJ0brihq/7ybKKWzXRsWFg2QgrFd3V9hg2o3qegRvI9bpVHmNvgR4wdLOFW3bCYOnMPqRwW2/ZF5GjKqWL4q9/InYsqMK04BHuB+h6sgm4LyxWpuWRwnLCqTzGMYIfP6dL6S82R+ziYrIPwPemlJ6WEppsuFQDyWl1JJSmk4UT3s7Y1tQ8BrKGTWHmMb9bKJ68adSSseklGZWvbawQWwBbhyD524v1Vc0lYFwXBvYz6YKc4BFFa0j3ESMePVUeGxmAe8ltqFoyZvOv56H3nR+NB4G/EuFo4QrgasrvKcPxrn3qh+3E5t2j6WbKG8a097D/Dt/LrEBTG7MHwH8F3AmUQXxJSmlA1NKMwyHGhQEU0ppN2IrgC8BX6ScirujcStRzbYsLUSRmX8nCld9D/j3lNLRKaWdU0rNOsq0mdpPF4WYibHOu6/xuO1E/VhLlKU+rIKfPYVY+/Jryqm29w/LFy3pW9q54ne5wVPl2rUDgE+t6dn6duCJOQzOqui9JgInAD+pKKRvJtZePoVqOmUOJEYKt3pbqQ7cTDlFBkZjHTFVbbTP1wkjCIQ3EtvNPL/k3ykR08P3JzYaXw1cT2xtcCmxzc2t+btli9VDx2Xga8vfVyl3VswmZgPtlr8HDgUeTkx1nlEnH3sj8Evg+Py5y9JKjOA/Kwfg+4iiKn9PKV2SQ+jNua2yGegZ5/tpdo1hMHPbKwOhRqHIX+BPrejnH0V1m3xeS/SCP7vC49MCPGZzX/HeFljcX10YHHB4fq0o/ScvXtZPR3tHDmxVLJrelVjndK+3lerAtYz95sJdxFS10WoDdkspteUCGUNtAP+Q6ACqai33ZGKUZHfgSdzfS39HDol/zXuEXUeM2K4nT2N1k/m6DHotg773JucwN1CGf0F+zSO2SVow6LUT8d04jTpdf1UURV9K6dfA34nZLFVoy8dnHnA0sQxkC7E058YcDq9IKV1FzBy4J7fBxtP90IubustA2JB6iGmEfVQzavRwYiH5ygp+9mZiTcvTKLfHb9uH25mTWiZ8sD96/z5ItT2eOwFPp6P9dyxeVkX115uI6RyLKvjZc4jR2qu9rTTG+vO13jOWH6Ioit6U0s1EMaeJJdxfE3MDcyjv3Z9S+i1wHvHsqoVWYrRoNnAQ0Vm3JQfBW3JIvAS4KqXUmRvEG4cRclVuAGzLIW42MaVzD2LpwkDV6J1z0JvB/SOCicZd9nMr8B3gIyXcj0PRQnS+7p1fx+VnwcbcaXIjUY34byml6/M/Wxe3rx0mMhCqhpYvWtK/tHPFDfkBVcVmnHvkhsHKij77uUQPfBVTXnuJDd3fNjdNGShpvAuxZqCqL5MW4Ak5RN9Rwc+/KzeUqwiEk6mqKI40PN3AnXXSqFpF9JiP9pkxeziBMFsLtANHMjYVHgcaxFOJUaXFxL6Gm3MYvBG4JKX0R6JI2O1Al43hSsJfC/eP/O0OPIKYwXMYsd/kvNwGGLdrQXMHzfeIUfPjxuhjTCQ6d+YQI5XPJjquVnN/sbyOlNKf83f1BqddazyzqEx96aS6tTbTgcc+oFJn+Y2tn1H+SEAvsd5gGbAy7324CfgM8IeKz8e+wMEVVezcDFxVYePPrSdUD7qANXXyWe6lnBLsMxhmZ2oOVhcCnx9mkKzaVKLz6MlE9dLvAr8CvgW8MqW0X0ppopdxaWFwEjFb53VE8ZNfAf+dj/2/APsRs1OaoTDQncBHiRHrejEhd5gcCbyWKMJzVm7bvDuldJSFm2QgVC2sprpqfK3AsVQz+sjyRUt6gJ8SPWllh8G3A505DA5s3XAH8HGqraI1E3h0RfdJD7G2qoqpdC3AXhVWSZWGqpv6qTi3gXL2/5zMCNZnFUXRReyZ9h3GeArtQzw3phGdSS8BvgGcDXwupfREG8IjDoEteSuEpwBfzgHjK8DzgH1yKG+645pH284nln/cU6cfcyIxG+k44GNEVd/vAS9NKS10ewsZCFWVTcRi56qm6RwC7FvR9hMQ61JOo5w9twamib4DuPUfYXBAhMKLgR9Q3h5f23MMUaW1XPH5b6S60YIFVFOwRhqO/joKP135GTta0xn5cou1wIfzc7K7zs/dQBXTNxD7vJ0KHJdSmuxlPeQwOIWopvlNorDQa4k1bG64HaGwF/gR8P46DoUDWojp3s8Gvp4/9ytTSvPsKJGBUKVavmhJH7FpeVWVoXYmtmyoSg8x5Wi0xUwGRgbfxuCRwX8OVVvzF21nhb/TflS35mdlSQ3U7ZlD9PZLY9rmI0bm6iWcltHZNuLGX1EU/UVRrCKmwH+extivq4VY1/avRAfc51JKBzs68pBBsDWldACxtOGHwAvzM9ng8M/3xFbg28RMoBtpjC0LpgGPJ0Z6vw88xY4SGQhVtiuprqeshahyV0l1zhzcOompRiPdA6+XmJaxjO2NDP6zvxMjiVVZSHUFWtZS3ZrRWVQxsikNTx/VjuA3qnuIkcJ35mdYoxRvmQe8PjeCn5vXxOmBYTARFbe/n4/Vzh6VHYbCbmLE7dXAbyhnrW8tTAGWAP8DvDelNNfRQhkIVZaVlLNf1oM5DHhkVdNGly9a0ktMh/q/EYbBXwJvBW4eQhiEGJX8ObEJbVUP/IdX9LM3Ut1egdOI4gTSWJqAU5e31wDuL4piI1G85QRiOubqBvn4rURlzK8DJ+f1cTaCIwxOBl5DdIoeQX1ODe2rxw6Ioih6iMJLrwb+H7FnZqN0Ji0A3kOMGO7j/SADocqwGbiowgf2HOBZVLvlyGrgU0Tp8uF8SZ0NnMzQRgZDrMW7muoqdsY6mmoKtGyqMMgmKiogJA1DG1GEpV4+SxnPvdJKz+c1VFcQ0+NfThTmWtMg53Yu8B/Au6h2T9hGCYMTc5j5GFGIpO4yF1HIbDnlFn8rMxT2F0VxJ/BZ4Pm5HXFjmfdchSbmz/w1Yg9JyUCoUekFLiA2EK5CC/AMYl/CSuQw90eiotrWIf7OvwDeAtwy5DB4vzXEFhRVfWnsDpQ/NWrxsj7g7oo+8wQcIdTYm0D9TF2eTDnratdT4pS23AjeTEyVey3wHOBzREfX5jo/v1OJGR0nNfMaqrye8rnERutz6+Aj9REzUG7P7YkvAi8lprJ+mOo6Isu6J3qKorga+ADwzNzpcF7+3PUcDtuILVw+mVLa1ZFCGQg12jB1FdX24O0PPLXCaqMsX7SkIKbN/GIHD/B/bDo/wjA4EKwuprqKnQupbpSjqmliCXvtNfYm1lHHxJx8X4xWdxWN0hwMN+QG/MC+dK8kRhwuIwrQ1GNjeDqxFvLpzVhoJjf6DwVOqXEY7M/XQxex/dK1xFKNr+UA9SJiu4Rn5ND+s6IobqZx1udRFMXAqOZniOqez8uB9lxiH8OC+pv+2pqP+TtwurwayAQPQV26h5g2+kiqqUo2gagY9yOqW8NG/tkfyQH08AcJg9tuOj9SNxO9h1VU1tyZKkYIw9oKv5TcUFpjbRIwN6XUkjdnH0vzS7on1lLhlhH5OPUCt6WUbieKbM3Oz9HDgKPy/94z//N62MduDvDuHFw7m+wan04sdTigwvfoIar13gOsIvbhvZnoOL4tB8J7iNHrrTlL9Y+HgxuZkP7cIXJeSulCYsRzT+CgfD8cDCzKgXwGY792cwLwKuD8lNLp4+VcyECoGlu+aEnv0s4V5xDrEaraOuBI4MlLO1f8LG93UcXv0b+0c8XVxGLrU/MDfHAYPIMoNX3rKMMgxEjbaqqZCjulwkBY1dTgVqwyqvr4jtkzX49jViAij+KUNfX7Pmq0h2BuSHYRoyF35gZmG7E+eGEOhgcRRV4eln/HWfm413q07nDgFSmlj+cCIeNevq6eREwXLft4b82h70/EDJi/EUXn1gKb8vrTppN/7/vy6/KU0g9zp8g8oiL4ITkgHpbvh3n5vq91SJxDLIO5gPrfY1EyENaxy4Eb8hd9FaYR1dB+R4WjhDkUnktsPPvp/HAeCIND3VpiKDZQ3WjbxAqDeVVTwNpwukoja2H87Fm2b/6uGcsG7IT8OcpoFK5mDKfd5QbxGmBNSulaYgRxEjE1d7ccDA/LjeJ9c3CcWYPv+wnAi4ntFm5skvt0CvAKyi3gtTaHiB/nP+8EtjrK9JCdJpvy6+aU0nnE1PBp+drfO7ejDt2m06QWa16PBp6UUvqJ508GQo3UXcCK/MVeVcPwWOD4pZ0rflxSKHuwUFgs7VxxGjGV48NEAZiyRgYH9FLt9NeqzsG9Xup1rZWxmX40nfGzBvTA/Lt0jXHD/aASfk4PcHtRFHWxli83MvuJ9dNbcni4JKV0Wv6dZxOjJgcSU+sOz43imVQzgvgw4MkppZuapAF8SP4eLeV0EsXYPgP8HthgiBjxPdGdX2uAa1JK5+T27iyiAuxAp8nifA7nUc764m1NBV4InJUDq2Qg1IgaHmcTVefmVNjoPJFYiF51MCmA/yamTvyp5DA4OBQ2mt7coLMaWX1KwE5jsAZuXr4/x4M9iJGrsdxnbyGwX0nP5VsapFG8Ob9uTyn9EfhebhA/Anh6fpU1ajqgDXgK8J0x7gCo/sEQBXSOzffqaHUB3wY+Aayslw6HcRYSi9z+uCeldAVweg5s+xDFd56XO0zKXmpxFDFt/hrPhAyEGrY81fJSYurokyt8q8cBz13aueK/86bylf0+RA/Zjyv8Xdoa9B40DNa3hdRwDVxel3Qg1a1brbWdid74v47hZziIcvaG20QDFk0ZNGpyN7AipXQuUY3y5USn464lvt3BRAGfleP8uTAlB8LRjrQWwLeIPR3XOCpYs/uhh1jDf3lK6a/Ad4GnEhXPDyuxPbGQmK5qIFRdc9uJ+rae6MWqsrdwCvBvVLgvYY20EdOjGs1sL/O6tw/VTCd60EwIHFHj96zSRODxeePumstFWI4rKWDfTUznb/QGcQH8nagCvZTY87AsC4l1WuPdXMqpLNoBfLKGYbDFtt8/B8SiKO4mRtFfSlRgL6sw0kRiWqpkINTI5FG1X1N9j/QjgROXdq5o5G0KplcYrgqqm/9f1Sh9H9Xty9goBtZXjdbDKbdoxI7sQhQjGC9aiJkIu43R+y8gRnLKGIm/mbGd+lp2I7gb+BXwxhwQyzCZKOQx3i1g9NNFtwBfJ6aJ1mpkcDIxdVj/fE/0AdcRBe9Op5zO+FZgr5RS8gjLQKjRNkDOpNrNVxNRcfToKjerr9hcqtsUeBNRArwKVRUO6SXWDzWzzSWF4r2JIgSVy9NFH0us7RpP9iFGCWv6nZOP57HE9gxluIxxtjYuN4IvAD5LOdVTEzFNuBkC4Wif3zcBf6jxmsH51LaDq9Huh35iFsDHKW+9cJV7GUsGwmawfNGSbmL6wt0Vv9VuwLsqDFVVW1RhI+S+ChuBO1X0c/uo0V5pTRAIZwFPzVMPq7YTMWVpvDUeJgIvqvB6f6jj+RLK2YJlC/AXGrN41VBC4dnEVkej1TYG53kszC2hDXVdDb7b70/q969PdqnCjkPh1cToeRnGYh9EaVgsKtMYLiO2oHh5xe+zBHjt0s4Vn1m+aEnRMEeno72VmGJX1Ubsd1UYCOdV9HMLqtv0vlGsBzaW1MB9NnBqSumWqqZ25dGzZwNPGKfn47HAklrtyZUbv0/MrzLcCVwx0s+eP8/AqzW/JhOjTNPya+ccNBbkEP29oihW1ej83EMU/nn4KH9OS5O0LWYzumnI/cRU0VqOOE/M3/Njfn7y/UC+DwbuiUlE5830fD/Myt+Rc4mRzRVAR42m13YDFwOvy8dNMhBqzHURi52fSbVz/ycDbwIuXNq54sIq9yYs2U7EGqUqRrz7iWp55U8ZjSA7v6Jj0mMgZC0xuluGhwMnENPqesr+oLlx9DDgZMbPdhPbmkmsVbsgpXRHDRp1C4A3U95o1eXAqiGez5Tv7Vk5OOyU/5yfXwvya2b+dzPyeR8YSUi5QXoD8L81/J65o6Rnz9o6ueZSSqmtKIoqRnXLWF5R61kc++bvylqfhNbc2TE73xMD98UcYs30wH2xc74PZubXlHw/TMivXYA/U4NR+qIo+lNKa4nO1dEGwl6qLQ4oGQibQd6C4iJis9rnVfx2ewAfBF6ztHPF7XUfCjvaW4gy54+sMFhdz+JlVTzMp1JtIZx1TX7rbAVuBB5d0rPyDTnMXFxmmMlhcC5wClHufDx7LNHj/okqG8MppUn5fcrcNPy3RVEMdV3u3kQn3h5ER9uUHPaGEyLagKellM7IVUGr1kaMyoxWbx09e+bn5+yGCn72aJ8BLcDslFJrLdYQ5k6KlzI2BX+mAP8J/Mug+2Eyw59GeSyxRUqttjQpa1uoNbiEQ3XONYSNYyOxce19NXivJxBVtqY2wHEZmM5XVbDaSqzzqMJ0qlv3uLmiRlAj6SLWgZQV3hYBHwb2HjTdqQwDYfC5jP89KRMxSvi0qtZk5tGIp+b3KWuq123AucN8Xk8hRjRm58bvcM9tC7EH7cNKvt4e6nn0sJLuu9vq5Hrbs8Jn7LoSni17lxTCd3RPtACPIJadjMVatq4ciHbPz7tpI/wc+wPPqMV67vwc2T/fu6PtOFhlIJSBUKXII3XnEnPoa9Foex3w8qWdK+p9FHk/4DkVNqTvorxKY9uaTXVFfNbQ5FVGc6/7VZS3/cZAA/0zwL6jbaSnlFpTSvsC7fl+a5YqdAuJfdeOLbvqaG4oPh74L8rdbP0PREXIoboPuLaE9907XxtTqjwh+Vo+lHJGqNeU8MwsSnp+7Q4cWVGgXs3opwEeQPkdTNs7t3OB/wfsNUbP4h6iINNo10tOAl5fo99jLvC0EtrJBXBVDbcVkQyETWAjcCpwbw3eazrwPuBJSztX1Od10tE+EXgVUdK+KjcSxSSqsBvV9Q43fSDMrqLcKn6twLPyffiEkewtlVJqSSlNyx0Z3yWmcTVb0YIDgC8AT0opldLplH/OU4AvUu42IeuAnzK8dcTdwB8Z/XrTVuBlxKhIlc/hgfWdc0r4WTcw+rWIZe39OjUfvypmkKxm9J1NuxIzXKrseN0JeE8ON2Pp0pLaLo8A3pqfoVWF6DbghZSzH+x6YqaKZCBUOfIo4UXAz6nNAuU9iZ72R9Xd/oSxdvDRORBW+WV6EVVs8B6ffz+qm5Z7t4EQgNuJyollaiOmVX8f+HhK6YiU0rQdNdhTShNSSvOApxPTv78FHEPzliM/FPgmcFJKac5IR0lywJ5LFMT6BnBIyZ/zz8BFw+nhz//teZSzif084KM5PJd+raSUZhLFjJ5T0o+8sIRnzxbKWx7xFOANKaXpJY/E3UlUZh3ts+Q1wFFljxLm+2Jn4APASYz9DIQbicJMZTx/Xwu8JaU0vYL7YQJRifXdJX0/XwNc71exDIQq2xZgOXBrjd7vETkU7l1noXAe0eu5S4XvsYEoO11F+J5AjGJUEWb7gU4WL+v1dmEr8BuqqUq3a25I/zIHvH9PKT0ppXRASmmv/FqUUjo8pfRC4CNEZ84PiYqlszw97EUUmPkWMQo2Y6gN49zg3Ql4BvA/RNGK3Sp43v4PI6uaeT3wp5I+x8OArwAnpJQml/ED8/FbmAPDMsqZlrqGWNYw2ulxm3NnThmm5sb9fwKHpJQmbe8ay8djZkpp7hBHY+8Bbi7h8+2T74EDywqFg6oWfzaHwcl1cK9vAs4p6Vk8HXgv8L6U0rwSj9sUYt/SLxMd4qPVl++HZi/wpgZgldEGkyuO/jU3QN9fg3PYQoyGfCo3fm8d84PQ0T4tf5bjKn6nm4CrWLysirn/U4jqqFXoJ3pjm14uHX4uUZVu7wreojUHwxOICsCb82tgulsbsaXAVIZXWKQvN5xSE5ymKcTo1BOJdUa/Sil1EOvQNhDTBweeRYmYArcnMbr6VOBRVLcR+u+Bc0a4/mcj8BPgeMoZaRgIhcemlL4BXFsUxbC3w8lhZ3Y+3m8mKr+WdZ1dxCj2ahx03/aklK7I90AZo6IDU2KfTcwYuDKldPugn78wPx8W5Wfnm9lxUa7NxLTg4xjdGvYWYiuIU4EPp5T+AHSN5Bjmc7uA2KLq3/N3TF10/BdF0ZdS+jXQScyOGa0ZuSPjcOCLKaULgPXDPW45TE4l1s++DnhBic+TO4CzqcE2GZKBsEnbuTkQPo1ySurvSBtRAXHr62/6zclb+nvu+d6+Tx+bBdKxbvA1xPSwKtdd9QPnE0VlqrCgpC/F7eminJ7r8eIm4FfEthFVjnJP4P79s0brYmKq0YlNdJ52yo3r44h1N3cT0/LuzQF5Avdv2j4vNwirtJpYjziidU+5AfwbYu1UWXu/zR4UbM5OKZ0NXJGPU1d+bvVvEzZa8jN8Vg49TyCmLR9NuVPWNxBrYsva//TS3LEys6Sf15Y7EvYk1gE/mIVEZdIdBcJeYnrs+hICRAvwGGKrkh8BP0wp/S3//v0PFnJymGkhpoPunTsfXgIcQX2uS76JWI/7zpKC/kRiK4tj8vf12Sml84kqtxu4f3ZP/6DjTA7JU4miQ0fkttRxlLsvcD9wFnClBWVkIFQl8ijhbcDngK9TXe/4A75M+/r7T7ila/2WCzbe/gE62u+saOTsocLgJOCVxMho1Zt3rwfOZPGynop+/n654VGFexniBtpNogv4AdHzO78BPu9WYm3dhHESCP+eA9xwCnsMBOv9xugz9wE/Bs4dZWPuHmJd4+Elhq+W3JB9PVEw5Q5i1OUWYiR8/TYN5oHRr72IfRFnV/Td/3/Ab0ps/F5NbPlzVI3P/bx8vG7eQeDvTyldmj/nMSW999wc+E8gRjIvAq5KKd1BTFvuHRRud8qdIwcBRxLLO3aljgtU5ZHf7+QOjYNK/NEzianjS3JH0kpipHclD6wG25rD/h75HO+dz3cVU2pvBk4tiqILyUCoikPh2bnRciIVTwvp6+/nlu71E/+4cdWrtvT1zALeQ0f7TTUJhVGAZVpuAL2P6rZqGOxSYvpaVb/PYqpb13EH5VbWbGi54fYXYq3fidT/Xn9/As7Mjabx4Bu5ofpWGmfd+mXA50YyJXM7194ZxBS+F5Z87Q08F/cbw+A84HZivdraEn/mauDXxAhOLa+bGcBBKaU/DCHcriamBR9VYnuqlei4WpJfPcT04y3bBJsp+fyPZLpvWVNxR+J6Yo3epyl/O5WJubNk9xJD+khsBb5KOUV0pJqwqExj2wh8nnL2u9pRGOTiDXewsa9IwPNzI+9YOtqrXeMU4Wl3YkPwU2oUBgvgZyU3bgabQvToVnX/XUs5JdvHky7ga9TDGtiHtj43lu4ZR8d+E1E0plEq7d1JVPUsax3uWmLfxfFaaXBz/h7qKHlqXC/wC0a/hcVIgvYjhxKY8u/7C6rdVmACMd13F6Jo0m75f88aYRi8C/gOo98TcKSdJD3AacAZ1KZaeq31E0sUvl0UReFXrwyEqlzehuIaouDL+ireYyAM/nHDKjb0dQ++bp5ErHd4Gx3tC+hoL/da6mhvoaN9KlE04nvEAvmZNTq01wO/qrBK556UXxr/H6cMuJLh7Zk27uWG21+Jve/qdTuOXqIC6a/G4ZqTa4AvUf9boWzOz9Ozi6LoK/Hauwz4EOVtpVA3t1YOF8uLouiu4J69gqjMW+v74WCGvkb1FqLYTyN0wvXmMHbOWIaxoijuI6ouXzIOv24uAU4pimI1koFQNQyFfcD/5od8qQGmr7+fW+8fGdzef7IHMXL3feBFdLTPySN6ow2Dk4g1N+1EyffHU7vpzb3EFKBbKvnpcXwOJ9Z+VNWgvarm6zsbIxT25Ovp9DFoYA7Fn3MY2TgOj/1A2D2d+h0V6CK29DmV+yublvX79+Vg82l2XKykUfTm8/kRKuqQzOuvvk7Fs2C2Y09imvNQr+0fEdUk691lxFTG7jr4LFcT24HcMI4eddcRlU+v9BtXjcY1hOPDBmKvwMMoqero4JHBBwmDAyYT1bkeTax9+hkd7b8jFnNvZvGyHTf+IiRNJBZ7H0EU/ziOmBpT6/Vefwd+WOHo4GRio+Sq1g/eMwaNp0ZyX+7E2JMot18v6wlvIPbVvGkcV6QbOPb7Emto60k3MdL1saIoqgo3W1JKX8j/9z3UbsZDVcfrp8B7i6KouoDVNcQ+fZ9jeIWJRmMOsc3HVUP879flYPwworhLPVpFFGS7Hnj4WH+YXIX3DzlAfRrYv4Hvh4HR7JOBC8qaXSAZCDUsucDMTfkL6b+JqlmjCoO3Di0MDjaNmEb6OKLAwGXAxXS0X0mMtq0npjEOPCgn5r+zK3BADoKLieII08aood6dj99NFb7HrlS72P0Gar/mpmHkIh9/B95GrNWrh2ByK/Cu3JDob4Jj/25iFG6/OvloW/Ln+Qgj3GJiGDYT05a783GY14CncmBN6MeoQfGqoih6U0o/AQ7M4aEWVTQnA4emlE4fyj2Zr+2riO0UvpSDYT1Zm8/Xb3MQq5dnQl9K6azcPmgn9hRtabD7oQ84F3gv8BfDoAyEqodQ+H/ESOEpOVSNKAzeMvwwOFji/nLOz82Nh01ED+rgfYGmEGWzZzDySmlluwT4HouXVbMQPEZCH0OMTlWlIzdw9dCNt8uAk4hiGI9hbKbP9xNTjN5JbH7e2yTH/gKi4uhn66DhfA/wGeBrRVGsrcXvD2xKKX2J6Hj6IHAojbF8oz9/5v8CflgURS2nvm4lRpGmEZuHT634/VqJGTdTGOK61xxufkesd/8C0dFZD1bnzo66LHKSA/95wKvz/fB0yq8+WmXQ/kG+J251v0E1MtcQjq9Q2E1U//wRI1inM8KRwYfSQuwXuCA3/I4gynMfRRRV2YORV0or20ZiSlKVo2uTifLzVU0X3UrsW6UhNN6IUezXExVla11xrxf4PfAaooBJTxMd+15iO4GlxPYuY9GI6iOKDJ2UA+G6Gh+DLqI65UuJWQnr6/y0bSLWVr8U+GaNw+BAkF6TA8Mnqa4C9GAHMMw9fvO1/dt8bV/E2K+XvRV4B/D1oii21PEzYaAY2r8R01pvpj7XeQ/oIbaleiMxu8MwKAOh6s56omT6ecN5oJYwMtjIBgpenF1ZMZYYHTyQWLdWlduAay0oM6xG5nX5S/2DNWyErCJGO15NlOrva8Jj3wucD7yCKIhVy+qjq4lCJS8Cfl4URfdYNObyeb+GGC19DbGxe71VqtyYOy5el0POn8dqJDufo3VE4aU3ER06VX6WXYlOy5Fc2xcAryI6aNeMweHqBlbkz/CDRtgcvSiK/qIo7iVGV1+Yj90ddRYMe/J3xoeAE4AfF0WxyTAoA6HqTt6K4mai12pIC+IHjwxu6GvKbXMuBz7F4mVVVndsA55B7B9VlUuIPdQ0/EZIO1HM6FvEuqiyQ1p/DiLfA/4V+EBRFCubuSExKBC9EXg78LeKG/hruX+U6+SiKK4b62m6+frbSFQg/dccvM4kCvCM1bXRT6ylPJMYQX8h8KOiKNaN9fWaj9eW3IlwQg6Ht1DNSNxs4MCUUstIru2iKG4gioy8GvgdtZnK30sURjsld7b8odH2wivCJcBb8jP5q7lNM5azKLYQI4LvB54NfLwoiptdL6jxxDWE4zQULu1ccSmxyPmrxMbuDxoGb3norSXGu9XEYvsbK36fhcBzqK4TppvoyXf/wZE1QnryusK35lD4QmAJsIgRrscd1JC4NTcIf5wbFfYoD2rgA+tSSt/M1++LgecTo+llTK0uiCJX5xJT6S8CNtTb8R+YEplS+jGxqfUjienlTyCK78yi2mIb/Tkw3wD8AfglUTVxXT1eq7khfmNK6ZQcDp9PdLg9jKHvH/hQuoiOoSmj/JybU0pnEGu7jwdeAhxNVNQu87ugi6geejqxpu2GRt8UvSiKrpTSxcRI8Ffy8/jpxHKTuVS/1GQzMevmT/l+uAi4sxnWeqs5tXgIxq+lnSsmEL2En8pfQNsNg006TXSgsf4J4L9YvKy6IBXTRU8Evkh16wdXAs9g8bIrvPJHL6U0IYf4w4miM0cAe+X7aGpuzA1u0PXl12ZidOc2YuT5ohwCbxtuAy2ldDBRuXc0rgN+P5I1iiml44lRokmj/AwnFUXx1SG+ZysxVe/Y3AA8iujQmkaMsj9UI7qPGEXYmI//X3O4uQi4seyN02twDbbmhu/DgSOJrX0OyNflzHw82kbwPd6bj9MGYkretbnR+2dixHZ1o418pJTaiIqtj8r365G5M2fuoGunZdD1059fffl4bMz37UpiZs2fcxC5BdhcVihOKc0gigg9EXgysdXCPKJyatswflRPftbcnj/rCmIK9m1DCSwppX2I7Y9GMyhwU1EUZ9fwHLfksL8oPxcW53C4OzGaO3EIz4iHem5szZ0ANxOzbS7Oz5BVQE2nlaeUHpc7hUZjA/C/tV7vm59bR+aOj9HYCpxZFIWzngyEKikUTiGmZJ3CoJ7TwSODG/q6m/HQ9BL7jr2Dxcvuq/SdOtrnEqMTT67wXX4BvIzFyzZ51ZfeCGkjRgrm50C4IDdABhecWE+sFbqLmG53T26w9TTqaOBYBMJtjvuk3Fjekxj52XdQGGrdpnG8NjfcbiJG+2/N56FrPIzG5kbW5Hzd7ZKPyd75z7n5Wpyaw8+kbZ5zG4jOr3XEjIhbgM58jFblINQ1Hqa/bXO/zs3Xz8J8704nRlrb8v26JV839+Tjcm9+ba3yvs2fsTV/H++ar+2HA/vkZ8ss/nmUsz9/5vvyObuOKMLSSSwT6GqmWQf5GE7M53SXfBz3JdZ8Lsz3yYxB/03LoOO4KZ/jwcfzZu7fsumufG30OpNDzcQpo+Pc8kVLtiztXPH1/HB8JzDNkUH6iCqHp1D1gv+O9laiJ7bKvQd7gXNwu4nS5QbBwGjKBqqfWqz7j/tWYsRmJXDhoGCUeGBnZl/8lXG9h+PA6PPAqNBfBjWMJ+SG74R8bNq2PTb5Gu5uguO07f3aWaefsTeH0bXA1cDp+dqeks/lxO0Ewm5iaujWZg8q+ffvyq97czgeCIttg47hts+Lgetj4H7odh2gZCBsplC4aWnnis8DM/v6+0+6tXv95CZeM9hPTK15N7CyBhU5ZxMVBKvcV+l2hllVVmrgYNTlkXhAw7jILzX+tT2wb69Gfhx7ic5RO0ilYbDKaPOEwrXAh2/pXv+Vizas2tqk00T7iDVFbwKuqjwMxujg04i1P1U6H+h0uwlJkiQZCPVQoXDdeetv++jGvuJLNF8vZD+xN9RbgKtrFJ4WAG8g1jBUZROxftDqopIkSTIQ6qF1Hf22NcCHgY8zNhvmjoUeojjGUuDKmoTBjvY2YuProyt+p6uACxwdlCRJkoFQQ7UR+AywjKg4N55tBr4NnAT8vUZhsIXYR+2NVLtXUh8xOni3l7QkSZIMhBqaxcv687573wNeT2yaOx43W70L+BDwLuD2Go6iTSOmpu5X8fvcRox8WiVNkiRJBkINOxgWwP8BLwdOJcp0jwe9xGbUrwU+y+Jla2sWBqOQzDOJ6aJV3l/9xFYT1zldVJIkSQZCjTQU9hN7q70TeDtwBY094rQa+DLwCuCcHHprI6aK7gO8gwduWl6Fe4HTWLzMEvySJEkaMfch1EAo3EBH+7eJSpwnAS8G5vHADaDr2Zb82T8LnMviZWOxB9EMYl3mI2vwXiuAP3vxSpIkaTQcIdTgYNgH/B14D/AS4KfA+jr/1AVwCTG6OTAqWPswGFVFXwi8FGir+N3WEus/3cBYkiRJo+IIobYNhf3AFjrafw/8BXh8DlpPAnauo06EzcDfgO8CZxBFY8ZmqmtMFT0aeC8wswbv+HvgPNcOSpIkyUCoKoPhejrazwLOBY4Ang88FVhEtdspPJh+Yo3gRcTo5W+Bu8YsCN5vT2Jvx/1q8F73Ad/A0UFJkiQZCFWjYLiRjvbzgD8CXwAeAzwDOBzYFZhKdWsNu3MIuhr4DfA74Fpg45iPkMXI4Czg/cATaxSIzwLOd3RQkiRJBkLVOhh2AzfS0X4T8CNgN6KAyjE5HO4DzB9lQBwIgLcTU0L/ROyTeBMD6xnrJwxNBt4EvKxG99KdwNdwdFCSJEkGQtVBOOwEOuloP4PYjH0usAewdw6He+d/Nh2Ykv/2RGKfwF6gB9gIrMsB8Ebghvy/V+UA2F2Xo2Ed7ROBVxHFbCbX4B37gdOAPzs6KEmSJAOh6ikg9uRQty6HuoHQ1JID4KT858A11zfotQXoqoN1gMMJgxOA5xHrBufU6F2vBb5e030VJUmSZCCURhEU+4Gu/BofOtoT8Gzgk8Q+jbWwBfgyMXoqSZIkGQibUkf7FOBRwFXAeqcO1vz4TwCeA3wW2L2G7/xb4DQWL+v1JEiSJKlMbkzfWGFwKbGO7D3AbA9KzcPgs4BP1zgM3gG0E4V2JEmSJANhE4fBU4iiLW8FPk5H+4K8Tk/VHv+JwIuAzwN71fCdu4HlwEWOBkuSJMlA2JxhZDLweuADxJ53EBU7X0OMVu1pKKz0+E8FXkuM0u1R43c/D/gGi5d1eyIkSZJkIGzOMPgG4EP8czXLicCLiRGkR9LR7rks99i30NG+M/A+4D+BBTX+BLcBHyW235AkSZIMhE0YBl/HA0cGtzUBWAJ8E3hKroCpMsJg7KH4aeAdD3H8q7IF+AJOFZUkSZKBsGnD4BuIfe52VDymhag8+k3gTXS07+QU0lEd+wnAscD/AK8g9lCspT7gJ8A33XNQkiRJVXPbifoLJFOINYMfZHgjU7sCHwcOAz5BR/sNDbXZ+9gf9xZgeg6B76K2xWMGu4SYKrrGk6Ix1g/05tdo+BySJKmOOZJUf2FwKTFNdM4If0ovcFkOFb9h8bItHtgdHvdW4IAcBE8Apo3RJ1mZz/+vnSqqsZZSmgscyehnklxVFMUtHlFJkgyEGloYPIVy1qzdC3wP+CLQ6Wjhdo/5wKjgC4CTgUPG8J5YnwPpt5wqKkmSJANhc4bB9wM7l/iTe4DLif3zzgDWO/L0j2OegMOBNwPPBmaO4afpJorInMLiZZs8OZIkSTIQNl8YPIXqqlluBM4Bvgx0AFubNhh2tLcRFURfQezluOcYf6Ie4DTgZBYvu8cbQpIkSQbC5guDo1kzOFT9wF3AT4mKpFc11dTEmB66EHgesZ3HIUA9bNPxG+DfgFscvZUkSZKBsHkCyuQcBE6htvvc9RHFS34OfAe4Bugat2EkRgR3BZ4KvIookjGpDj5ZPzFauxS40jAoSZIkA2FzhcHX5zA4Z4w+RR9wG3A28APg0nG1fi32E9ybWB/4EuDQOgmCAy4HTgIuNgxKkiTJQNhcYfANxDTR2XXwifqB1cAfgR8DFwCrgJ6GCyqxfcROxF6MzydGBRdRH1NDB7uKGBm82OqvkiRJMhA2VyA8nhiRm1eHn64LuAH4dX5dnsNif12Gw1gXCDAZ2B94EvBM4AhiGm49Xt/XA/8OrDAMSpIkyUDYfIFwAfBfxDTGVKefsh/YAPwd+APwe2JU6x5g85iHw9gyYhawH3AM8GTgkcD8Oj+mVwLLgN+xeFmvN4MkSZIMhM0ZChcCHwFeToxu1butxHrDvwF/Bv4C3JgD4lYgwk3ZQTFGAFuBCcRay92JtYBH5td+1Me026GEwcuBN+GaQUmSJBkImz4QtuSA8x/EWrKpDfTpe4FNxBYWK4FrgauBW4A7iSmmm4jppwVQsHhZz0Mci1ZiVC8BE3NAng0sAPYAHgYcTBSI2ZXYQH5SAx2vfuAi4O3AJU4TlSRJkoFQA6FwBvC2/Jrd4L/RVmBjft0L3AesJaaebga25P89YFIOdyn/OTMfg3n5uEzPr0a+RnuItZjvBq52ZFCSJEkGQm0bDKcS++O9H9hlHP+m/cRWF4OvvdZx/Pt2A6fl87rSMChJkiQDoR4sFCZii4SPEmvkPC+NbQ3wFeCzLF52r4dDkiRJ9arVQ1AHFi8riA3iTwR+S0w1VGO6FXgX8HFi2qwkSZJUtxyJqiexrnCPHCheSaylU2PoBS4mpoie/5CFdCRJkiQDoR4iFE4DXgG8B9jTg1L3NgM/IkYFb3S9oCRJkgyEGm0wTMDRwAeAJ1G/G643s36gE/g08AMWL1vnIZEkSVIjcQ1hvYp1hRcRFUg/CdztQakr3cBZwMuA5cB6D4kkSZIajSOEjaCjfTIxSvhu4BhiA3eNjX7gFuCrwLeB1U4RlSRJkoFQVYfCFmAh8Brg34jiM56/2tpEjAp+GriUxct6PSSSJEkyEKqWoTABRwJvBp4BzPTAVK4XuJzYW/DnwFpHBSVJkmQg1FgGw+nA04CTgMXAZA9M6fqAm4HvEdNDb2Xxsj4PiyRJkgyEqodg2ArMB/6VmEp6MFYjLctdxGjgN4ArWbys20MiSZIkA6HqMRi2AbsBJxBVSQ/AwjMj0Z+D4FnEiOAlLF621cMiSZIkA6HqPRS2AG1EsZnnAS8nRgwNhkMLgncAZwLfBS4FtrhOUJIkSQZCNWI4bAN2AZYQ++QdAezk+f4nXcCNwC+AnwJXOyIoSZIkA6HGQygcOLezgEcT00mPJ6aWtjb50VlHjAL+BDgHWAn0OiIoSZIkA6HGazicDOxDjBo+CzgMmNNE4XATcBPwe+B04K/E9hFWDZUkSZKBUE0VDmfkQHg88GRireGscRYO+4GtOQSeD6wALgbuckN5SZIkyUCojvYJOQgeCDwGeCJwELGVxZQG/I16gfuATuCPwLnAZcCdQLdTQiVJkiQDobYfDluAqcQaw0cARwJHAfsCc4FJRBXTetEPFMR6wNuAK4gRwEuIUcH7nA4qSZIkGQg1snA4AZgG7AosAh5JjCTul//ZTvnfT6hR+NsMbADuBm4BrgcuB64lisKsBbocBZQkSZIMhKouJM4EZgO7E6OJe+TX7sRI4gxipHHg1UasTXywa603B74txJq/TcDGHPBWEaN/NwO359fdORhuNvxJkiRJBkKNbUhsyaGvjZhWOj0HwSn5NYEYTZy4nZ/Ql4NfkcPgVmIkcFP+syf/N24JIUmSJEmSJEmSJEmSJEmSJEmSJEmSJEmSJEmSJEmSJEmSJEmSJEmSJEmSJEmSJEmSJEmSJEmSJEmSJEmSJEmSJEmSJEmSJEmSJEmSJEmSJEmSJEmSJEmSJEmSJEmSJEmSJEmSJEmSJEmSJEmSJEmSJEmSJEmSJEmSJEmSJEmSJEmSJEmSJEmSJEmSJEmSJEmSJEmSJEmSJEmSJEmSJEmSJEmSJEmSJEmSJEmSJEmSJEmSJEmSJEmSJEmSJEmSJEmSJEmSJEmSJEmSJEmSJEmSJEmSJEmSJEmSJEmSJEmSJEmSJEmSJEmSJEmSJEmSJEmSJEmSJEmSJEmSJEmSJEmSJEmSJEmSJEmSJEmSJEmSJEmSJEmSJEmSJEmSJEmSJEmSJEmSJEmSJEmSJEmSJEmSJEmSJEmSJEmSJEmSJEmSJEmSJEmSJEmSJEmSJEmSJEmSJEmSJEmSJEmSJEmSJEmSJEmSJEmSJEmSJEmSJEmSJEmSJEmSJEmSJEmSJEmSJEmSJEmSJEmSJEmSJEmSJEmSJEmSJEmSJEmSJEmSJEmSJEmSJEmSJEmSJEmSJEmSJEmSJEmSJEmSJEmSJEmSJEmSJEmSJEmSJEmSJEmSJEmSJEmSJEmSJEmSJEmSJEmSJEmSJEmSJEmSJEmSJEmSJEmSJEmSJEmSJEmSJEmSJEmSJEmSJEmSJEmSJEmSJEmSJEmSJEmSJEmSJEmSJEmSJEmSJEmSJEmSJEmSJEmSJEmSJEmSJEmSJEmSJEmSJEmSJEmSJEmSJEmSJEmSJEmSJEmSJEmSJEmSJEmSJEmSJEmSJEmSJEmSJEmSJEmSJEmSJEmSJEmSJEmSJEmSJEmSJEmSJEmSJEmSJEmSJEmSJEmSJEmSJEmSJEmSJEmSJEmSJEmSJEmSJEmSJEmSJEmSJEmSJEmSJEmSJEmSJEmSJEmSJEmSJEmSJEmSJEmSJEmSJEmSJEmSJEmSJEmSJEmSJEmSJEmSJEmSJEmSJEmSJEmSJEmSJEmSJEmSJEmSJEmSJEmSJEmSJEmSJEmSJEmSJEmSJEmSJEmSJEmSJEmSJEmSJEmSJEmSJEmSJEmSJEmSJEmSJEmSJEmSJEmSJEmSJEmSJEmSJEmSJEmSJEmSJEmSJEmSJEmSJEmSJEmSJEmSJEmSJEmSJEmSJEmSJEmSJEmSJEmSJEmSJEmSJEmSJEmSJEmSJEmSJEmSJEmSJEmSJEmSJEmSJEmSJEmSJEmSJEmSJEmSJEmSJEmSJEmSJEmSJEmSJEmSJEmSJEmSJEmSJEmSJEmSJEmSJEmSJEmSJEmSJEmSJEmSJEmSJEmSJEmSJEmSJEmSJEmSJEmSJEmSJEmSJEmSJEmSJEmSJEmSJEmSJEmSJEmSJEmSJEmSJEmSJEmSJEmSJEmSJEmSJEmSJEmSJEmSJEmSJEmSJEmSJEmSJEmSJEmSJEmSJEmSJEmSJEmSJEmSJEmSJEmSauf/A729Sz9kFGbeAAAAAElFTkSuQmCC;clipPath=inset(32.46% 72.33% 31.99% 9.33%);" vertex="1" parent="1">
          <mxGeometry x="582.56" y="436.99999999999994" width="27.44" height="37.42" as="geometry" />
        </mxCell>
        <mxCell id="U8Zr3fgWpziJldObrb0T-18" value="Redis" style="image;sketch=0;aspect=fixed;html=1;points=[];align=center;fontSize=12;image=img/lib/mscae/Cache_Redis_Product.svg;" vertex="1" parent="1">
          <mxGeometry x="634.29" y="485" width="71.42" height="60" as="geometry" />
        </mxCell>
      </root>
    </mxGraphModel>
  </diagram>
</mxfile>
